<mxfile host="65bd71144e">
    <diagram name="ER図" id="IHoT9h_2okmhWzx3kYjU">
        <mxGraphModel dx="1118" dy="822" grid="0" gridSize="10" guides="1" tooltips="1" connect="1" arrows="1" fold="1" page="1" pageScale="1" pageWidth="1654" pageHeight="1169" math="0" shadow="0">
            <root>
                <mxCell id="0"/>
                <mxCell id="1" parent="0"/>
                <mxCell id="72" value="companies" style="shape=table;startSize=30;container=1;collapsible=1;childLayout=tableLayout;fixedRows=1;rowLines=0;fontStyle=1;align=center;resizeLast=1;" parent="1" vertex="1">
                    <mxGeometry x="119" y="108" width="180" height="150" as="geometry"/>
                </mxCell>
                <mxCell id="73" value="" style="shape=tableRow;horizontal=0;startSize=0;swimlaneHead=0;swimlaneBody=0;fillColor=none;collapsible=0;dropTarget=0;points=[[0,0.5],[1,0.5]];portConstraint=eastwest;top=0;left=0;right=0;bottom=1;" parent="72" vertex="1">
                    <mxGeometry y="30" width="180" height="30" as="geometry"/>
                </mxCell>
                <mxCell id="74" value="PK" style="shape=partialRectangle;connectable=0;fillColor=none;top=0;left=0;bottom=0;right=0;fontStyle=1;overflow=hidden;" parent="73" vertex="1">
                    <mxGeometry width="30" height="30" as="geometry">
                        <mxRectangle width="30" height="30" as="alternateBounds"/>
                    </mxGeometry>
                </mxCell>
                <mxCell id="75" value="company_id" style="shape=partialRectangle;connectable=0;fillColor=none;top=0;left=0;bottom=0;right=0;align=left;spacingLeft=6;fontStyle=5;overflow=hidden;" parent="73" vertex="1">
                    <mxGeometry x="30" width="150" height="30" as="geometry">
                        <mxRectangle width="150" height="30" as="alternateBounds"/>
                    </mxGeometry>
                </mxCell>
                <mxCell id="76" value="" style="shape=tableRow;horizontal=0;startSize=0;swimlaneHead=0;swimlaneBody=0;fillColor=none;collapsible=0;dropTarget=0;points=[[0,0.5],[1,0.5]];portConstraint=eastwest;top=0;left=0;right=0;bottom=0;" parent="72" vertex="1">
                    <mxGeometry y="60" width="180" height="30" as="geometry"/>
                </mxCell>
                <mxCell id="77" value="" style="shape=partialRectangle;connectable=0;fillColor=none;top=0;left=0;bottom=0;right=0;editable=1;overflow=hidden;" parent="76" vertex="1">
                    <mxGeometry width="30" height="30" as="geometry">
                        <mxRectangle width="30" height="30" as="alternateBounds"/>
                    </mxGeometry>
                </mxCell>
                <mxCell id="78" value="name" style="shape=partialRectangle;connectable=0;fillColor=none;top=0;left=0;bottom=0;right=0;align=left;spacingLeft=6;overflow=hidden;" parent="76" vertex="1">
                    <mxGeometry x="30" width="150" height="30" as="geometry">
                        <mxRectangle width="150" height="30" as="alternateBounds"/>
                    </mxGeometry>
                </mxCell>
                <mxCell id="82" value="" style="shape=tableRow;horizontal=0;startSize=0;swimlaneHead=0;swimlaneBody=0;fillColor=none;collapsible=0;dropTarget=0;points=[[0,0.5],[1,0.5]];portConstraint=eastwest;top=0;left=0;right=0;bottom=0;" parent="72" vertex="1">
                    <mxGeometry y="90" width="180" height="30" as="geometry"/>
                </mxCell>
                <mxCell id="83" value="" style="shape=partialRectangle;connectable=0;fillColor=none;top=0;left=0;bottom=0;right=0;editable=1;overflow=hidden;" parent="82" vertex="1">
                    <mxGeometry width="30" height="30" as="geometry">
                        <mxRectangle width="30" height="30" as="alternateBounds"/>
                    </mxGeometry>
                </mxCell>
                <mxCell id="84" value="updated" style="shape=partialRectangle;connectable=0;fillColor=none;top=0;left=0;bottom=0;right=0;align=left;spacingLeft=6;overflow=hidden;" parent="82" vertex="1">
                    <mxGeometry x="30" width="150" height="30" as="geometry">
                        <mxRectangle width="150" height="30" as="alternateBounds"/>
                    </mxGeometry>
                </mxCell>
                <mxCell id="309" value="" style="shape=tableRow;horizontal=0;startSize=0;swimlaneHead=0;swimlaneBody=0;fillColor=none;collapsible=0;dropTarget=0;points=[[0,0.5],[1,0.5]];portConstraint=eastwest;top=0;left=0;right=0;bottom=0;" vertex="1" parent="72">
                    <mxGeometry y="120" width="180" height="30" as="geometry"/>
                </mxCell>
                <mxCell id="310" value="" style="shape=partialRectangle;connectable=0;fillColor=none;top=0;left=0;bottom=0;right=0;editable=1;overflow=hidden;" vertex="1" parent="309">
                    <mxGeometry width="30" height="30" as="geometry">
                        <mxRectangle width="30" height="30" as="alternateBounds"/>
                    </mxGeometry>
                </mxCell>
                <mxCell id="311" value="name" style="shape=partialRectangle;connectable=0;fillColor=none;top=0;left=0;bottom=0;right=0;align=left;spacingLeft=6;overflow=hidden;" vertex="1" parent="309">
                    <mxGeometry x="30" width="150" height="30" as="geometry">
                        <mxRectangle width="150" height="30" as="alternateBounds"/>
                    </mxGeometry>
                </mxCell>
                <mxCell id="99" value="users" style="shape=table;startSize=30;container=1;collapsible=1;childLayout=tableLayout;fixedRows=1;rowLines=0;fontStyle=1;align=center;resizeLast=1;" parent="1" vertex="1">
                    <mxGeometry x="270" y="379" width="180" height="180.26187569754467" as="geometry">
                        <mxRectangle x="76" y="303" width="136" height="30" as="alternateBounds"/>
                    </mxGeometry>
                </mxCell>
                <mxCell id="100" value="" style="shape=tableRow;horizontal=0;startSize=0;swimlaneHead=0;swimlaneBody=0;fillColor=none;collapsible=0;dropTarget=0;points=[[0,0.5],[1,0.5]];portConstraint=eastwest;top=0;left=0;right=0;bottom=1;" parent="99" vertex="1">
                    <mxGeometry y="30" width="180" height="30" as="geometry"/>
                </mxCell>
                <mxCell id="101" value="PK" style="shape=partialRectangle;connectable=0;fillColor=none;top=0;left=0;bottom=0;right=0;fontStyle=1;overflow=hidden;" parent="100" vertex="1">
                    <mxGeometry width="30" height="30" as="geometry">
                        <mxRectangle width="30" height="30" as="alternateBounds"/>
                    </mxGeometry>
                </mxCell>
                <mxCell id="102" value="user_id" style="shape=partialRectangle;connectable=0;fillColor=none;top=0;left=0;bottom=0;right=0;align=left;spacingLeft=6;fontStyle=5;overflow=hidden;" parent="100" vertex="1">
                    <mxGeometry x="30" width="150" height="30" as="geometry">
                        <mxRectangle width="150" height="30" as="alternateBounds"/>
                    </mxGeometry>
                </mxCell>
                <mxCell id="103" value="" style="shape=tableRow;horizontal=0;startSize=0;swimlaneHead=0;swimlaneBody=0;fillColor=none;collapsible=0;dropTarget=0;points=[[0,0.5],[1,0.5]];portConstraint=eastwest;top=0;left=0;right=0;bottom=0;" parent="99" vertex="1">
                    <mxGeometry y="60" width="180" height="30" as="geometry"/>
                </mxCell>
                <mxCell id="104" value="FK" style="shape=partialRectangle;connectable=0;fillColor=none;top=0;left=0;bottom=0;right=0;editable=1;overflow=hidden;" parent="103" vertex="1">
                    <mxGeometry width="30" height="30" as="geometry">
                        <mxRectangle width="30" height="30" as="alternateBounds"/>
                    </mxGeometry>
                </mxCell>
                <mxCell id="105" value="company_id" style="shape=partialRectangle;connectable=0;fillColor=none;top=0;left=0;bottom=0;right=0;align=left;spacingLeft=6;overflow=hidden;" parent="103" vertex="1">
                    <mxGeometry x="30" width="150" height="30" as="geometry">
                        <mxRectangle width="150" height="30" as="alternateBounds"/>
                    </mxGeometry>
                </mxCell>
                <mxCell id="106" value="" style="shape=tableRow;horizontal=0;startSize=0;swimlaneHead=0;swimlaneBody=0;fillColor=none;collapsible=0;dropTarget=0;points=[[0,0.5],[1,0.5]];portConstraint=eastwest;top=0;left=0;right=0;bottom=0;" parent="99" vertex="1">
                    <mxGeometry y="90" width="180" height="30" as="geometry"/>
                </mxCell>
                <mxCell id="107" value="" style="shape=partialRectangle;connectable=0;fillColor=none;top=0;left=0;bottom=0;right=0;editable=1;overflow=hidden;" parent="106" vertex="1">
                    <mxGeometry width="30" height="30" as="geometry">
                        <mxRectangle width="30" height="30" as="alternateBounds"/>
                    </mxGeometry>
                </mxCell>
                <mxCell id="108" value="is_admin" style="shape=partialRectangle;connectable=0;fillColor=none;top=0;left=0;bottom=0;right=0;align=left;spacingLeft=6;overflow=hidden;" parent="106" vertex="1">
                    <mxGeometry x="30" width="150" height="30" as="geometry">
                        <mxRectangle width="150" height="30" as="alternateBounds"/>
                    </mxGeometry>
                </mxCell>
                <mxCell id="109" value="" style="shape=tableRow;horizontal=0;startSize=0;swimlaneHead=0;swimlaneBody=0;fillColor=none;collapsible=0;dropTarget=0;points=[[0,0.5],[1,0.5]];portConstraint=eastwest;top=0;left=0;right=0;bottom=0;" parent="99" vertex="1">
                    <mxGeometry y="120" width="180" height="30" as="geometry"/>
                </mxCell>
                <mxCell id="110" value="" style="shape=partialRectangle;connectable=0;fillColor=none;top=0;left=0;bottom=0;right=0;editable=1;overflow=hidden;" parent="109" vertex="1">
                    <mxGeometry width="30" height="30" as="geometry">
                        <mxRectangle width="30" height="30" as="alternateBounds"/>
                    </mxGeometry>
                </mxCell>
                <mxCell id="111" value="updated" style="shape=partialRectangle;connectable=0;fillColor=none;top=0;left=0;bottom=0;right=0;align=left;spacingLeft=6;overflow=hidden;" parent="109" vertex="1">
                    <mxGeometry x="30" width="150" height="30" as="geometry">
                        <mxRectangle width="150" height="30" as="alternateBounds"/>
                    </mxGeometry>
                </mxCell>
                <mxCell id="344" value="" style="shape=tableRow;horizontal=0;startSize=0;swimlaneHead=0;swimlaneBody=0;fillColor=none;collapsible=0;dropTarget=0;points=[[0,0.5],[1,0.5]];portConstraint=eastwest;top=0;left=0;right=0;bottom=0;" vertex="1" parent="99">
                    <mxGeometry y="150" width="180" height="30" as="geometry"/>
                </mxCell>
                <mxCell id="345" value="" style="shape=partialRectangle;connectable=0;fillColor=none;top=0;left=0;bottom=0;right=0;editable=1;overflow=hidden;" vertex="1" parent="344">
                    <mxGeometry width="30" height="30" as="geometry">
                        <mxRectangle width="30" height="30" as="alternateBounds"/>
                    </mxGeometry>
                </mxCell>
                <mxCell id="346" value="created" style="shape=partialRectangle;connectable=0;fillColor=none;top=0;left=0;bottom=0;right=0;align=left;spacingLeft=6;overflow=hidden;" vertex="1" parent="344">
                    <mxGeometry x="30" width="150" height="30" as="geometry">
                        <mxRectangle width="150" height="30" as="alternateBounds"/>
                    </mxGeometry>
                </mxCell>
                <mxCell id="125" value="books" style="shape=table;startSize=30;container=1;collapsible=1;childLayout=tableLayout;fixedRows=1;rowLines=0;fontStyle=1;align=center;resizeLast=1;" parent="1" vertex="1">
                    <mxGeometry x="731" y="379" width="180" height="180" as="geometry">
                        <mxRectangle x="76" y="303" width="136" height="30" as="alternateBounds"/>
                    </mxGeometry>
                </mxCell>
                <mxCell id="126" value="" style="shape=tableRow;horizontal=0;startSize=0;swimlaneHead=0;swimlaneBody=0;fillColor=none;collapsible=0;dropTarget=0;points=[[0,0.5],[1,0.5]];portConstraint=eastwest;top=0;left=0;right=0;bottom=1;" parent="125" vertex="1">
                    <mxGeometry y="30" width="180" height="30" as="geometry"/>
                </mxCell>
                <mxCell id="127" value="PK" style="shape=partialRectangle;connectable=0;fillColor=none;top=0;left=0;bottom=0;right=0;fontStyle=1;overflow=hidden;" parent="126" vertex="1">
                    <mxGeometry width="30" height="30" as="geometry">
                        <mxRectangle width="30" height="30" as="alternateBounds"/>
                    </mxGeometry>
                </mxCell>
                <mxCell id="128" value="book_id" style="shape=partialRectangle;connectable=0;fillColor=none;top=0;left=0;bottom=0;right=0;align=left;spacingLeft=6;fontStyle=5;overflow=hidden;" parent="126" vertex="1">
                    <mxGeometry x="30" width="150" height="30" as="geometry">
                        <mxRectangle width="150" height="30" as="alternateBounds"/>
                    </mxGeometry>
                </mxCell>
                <mxCell id="211" value="" style="shape=tableRow;horizontal=0;startSize=0;swimlaneHead=0;swimlaneBody=0;fillColor=none;collapsible=0;dropTarget=0;points=[[0,0.5],[1,0.5]];portConstraint=eastwest;top=0;left=0;right=0;bottom=0;" parent="125" vertex="1">
                    <mxGeometry y="60" width="180" height="30" as="geometry"/>
                </mxCell>
                <mxCell id="212" value="FK" style="shape=partialRectangle;connectable=0;fillColor=none;top=0;left=0;bottom=0;right=0;editable=1;overflow=hidden;" parent="211" vertex="1">
                    <mxGeometry width="30" height="30" as="geometry">
                        <mxRectangle width="30" height="30" as="alternateBounds"/>
                    </mxGeometry>
                </mxCell>
                <mxCell id="213" value="bookshelf_id" style="shape=partialRectangle;connectable=0;fillColor=none;top=0;left=0;bottom=0;right=0;align=left;spacingLeft=6;overflow=hidden;" parent="211" vertex="1">
                    <mxGeometry x="30" width="150" height="30" as="geometry">
                        <mxRectangle width="150" height="30" as="alternateBounds"/>
                    </mxGeometry>
                </mxCell>
                <mxCell id="218" value="" style="shape=tableRow;horizontal=0;startSize=0;swimlaneHead=0;swimlaneBody=0;fillColor=none;collapsible=0;dropTarget=0;points=[[0,0.5],[1,0.5]];portConstraint=eastwest;top=0;left=0;right=0;bottom=0;" parent="125" vertex="1">
                    <mxGeometry y="90" width="180" height="30" as="geometry"/>
                </mxCell>
                <mxCell id="219" value="FK" style="shape=partialRectangle;connectable=0;fillColor=none;top=0;left=0;bottom=0;right=0;editable=1;overflow=hidden;" parent="218" vertex="1">
                    <mxGeometry width="30" height="30" as="geometry">
                        <mxRectangle width="30" height="30" as="alternateBounds"/>
                    </mxGeometry>
                </mxCell>
                <mxCell id="220" value="status_id" style="shape=partialRectangle;connectable=0;fillColor=none;top=0;left=0;bottom=0;right=0;align=left;spacingLeft=6;overflow=hidden;" parent="218" vertex="1">
                    <mxGeometry x="30" width="150" height="30" as="geometry">
                        <mxRectangle width="150" height="30" as="alternateBounds"/>
                    </mxGeometry>
                </mxCell>
                <mxCell id="132" value="" style="shape=tableRow;horizontal=0;startSize=0;swimlaneHead=0;swimlaneBody=0;fillColor=none;collapsible=0;dropTarget=0;points=[[0,0.5],[1,0.5]];portConstraint=eastwest;top=0;left=0;right=0;bottom=0;" parent="125" vertex="1">
                    <mxGeometry y="120" width="180" height="30" as="geometry"/>
                </mxCell>
                <mxCell id="133" value="" style="shape=partialRectangle;connectable=0;fillColor=none;top=0;left=0;bottom=0;right=0;editable=1;overflow=hidden;" parent="132" vertex="1">
                    <mxGeometry width="30" height="30" as="geometry">
                        <mxRectangle width="30" height="30" as="alternateBounds"/>
                    </mxGeometry>
                </mxCell>
                <mxCell id="134" value="created" style="shape=partialRectangle;connectable=0;fillColor=none;top=0;left=0;bottom=0;right=0;align=left;spacingLeft=6;overflow=hidden;" parent="132" vertex="1">
                    <mxGeometry x="30" width="150" height="30" as="geometry">
                        <mxRectangle width="150" height="30" as="alternateBounds"/>
                    </mxGeometry>
                </mxCell>
                <mxCell id="135" value="" style="shape=tableRow;horizontal=0;startSize=0;swimlaneHead=0;swimlaneBody=0;fillColor=none;collapsible=0;dropTarget=0;points=[[0,0.5],[1,0.5]];portConstraint=eastwest;top=0;left=0;right=0;bottom=0;" parent="125" vertex="1">
                    <mxGeometry y="150" width="180" height="30" as="geometry"/>
                </mxCell>
                <mxCell id="136" value="" style="shape=partialRectangle;connectable=0;fillColor=none;top=0;left=0;bottom=0;right=0;editable=1;overflow=hidden;" parent="135" vertex="1">
                    <mxGeometry width="30" height="30" as="geometry">
                        <mxRectangle width="30" height="30" as="alternateBounds"/>
                    </mxGeometry>
                </mxCell>
                <mxCell id="137" value="updated" style="shape=partialRectangle;connectable=0;fillColor=none;top=0;left=0;bottom=0;right=0;align=left;spacingLeft=6;overflow=hidden;" parent="135" vertex="1">
                    <mxGeometry x="30" width="150" height="30" as="geometry">
                        <mxRectangle width="150" height="30" as="alternateBounds"/>
                    </mxGeometry>
                </mxCell>
                <mxCell id="138" value="bookshelves" style="shape=table;startSize=30;container=1;collapsible=1;childLayout=tableLayout;fixedRows=1;rowLines=0;fontStyle=1;align=center;resizeLast=1;" parent="1" vertex="1">
                    <mxGeometry x="486" y="379" width="180" height="180" as="geometry">
                        <mxRectangle x="76" y="303" width="136" height="30" as="alternateBounds"/>
                    </mxGeometry>
                </mxCell>
                <mxCell id="139" value="" style="shape=tableRow;horizontal=0;startSize=0;swimlaneHead=0;swimlaneBody=0;fillColor=none;collapsible=0;dropTarget=0;points=[[0,0.5],[1,0.5]];portConstraint=eastwest;top=0;left=0;right=0;bottom=1;" parent="138" vertex="1">
                    <mxGeometry y="30" width="180" height="30" as="geometry"/>
                </mxCell>
                <mxCell id="140" value="PK" style="shape=partialRectangle;connectable=0;fillColor=none;top=0;left=0;bottom=0;right=0;fontStyle=1;overflow=hidden;" parent="139" vertex="1">
                    <mxGeometry width="30" height="30" as="geometry">
                        <mxRectangle width="30" height="30" as="alternateBounds"/>
                    </mxGeometry>
                </mxCell>
                <mxCell id="141" value="bookshelfe_id" style="shape=partialRectangle;connectable=0;fillColor=none;top=0;left=0;bottom=0;right=0;align=left;spacingLeft=6;fontStyle=5;overflow=hidden;" parent="139" vertex="1">
                    <mxGeometry x="30" width="150" height="30" as="geometry">
                        <mxRectangle width="150" height="30" as="alternateBounds"/>
                    </mxGeometry>
                </mxCell>
                <mxCell id="142" value="" style="shape=tableRow;horizontal=0;startSize=0;swimlaneHead=0;swimlaneBody=0;fillColor=none;collapsible=0;dropTarget=0;points=[[0,0.5],[1,0.5]];portConstraint=eastwest;top=0;left=0;right=0;bottom=0;" parent="138" vertex="1">
                    <mxGeometry y="60" width="180" height="30" as="geometry"/>
                </mxCell>
                <mxCell id="143" value="FK" style="shape=partialRectangle;connectable=0;fillColor=none;top=0;left=0;bottom=0;right=0;editable=1;overflow=hidden;" parent="142" vertex="1">
                    <mxGeometry width="30" height="30" as="geometry">
                        <mxRectangle width="30" height="30" as="alternateBounds"/>
                    </mxGeometry>
                </mxCell>
                <mxCell id="144" value="company_id" style="shape=partialRectangle;connectable=0;fillColor=none;top=0;left=0;bottom=0;right=0;align=left;spacingLeft=6;overflow=hidden;" parent="142" vertex="1">
                    <mxGeometry x="30" width="150" height="30" as="geometry">
                        <mxRectangle width="150" height="30" as="alternateBounds"/>
                    </mxGeometry>
                </mxCell>
                <mxCell id="516" value="" style="shape=tableRow;horizontal=0;startSize=0;swimlaneHead=0;swimlaneBody=0;fillColor=none;collapsible=0;dropTarget=0;points=[[0,0.5],[1,0.5]];portConstraint=eastwest;top=0;left=0;right=0;bottom=0;" vertex="1" parent="138">
                    <mxGeometry y="90" width="180" height="30" as="geometry"/>
                </mxCell>
                <mxCell id="517" value="" style="shape=partialRectangle;connectable=0;fillColor=none;top=0;left=0;bottom=0;right=0;editable=1;overflow=hidden;" vertex="1" parent="516">
                    <mxGeometry width="30" height="30" as="geometry">
                        <mxRectangle width="30" height="30" as="alternateBounds"/>
                    </mxGeometry>
                </mxCell>
                <mxCell id="518" value="bokkshelfe_name" style="shape=partialRectangle;connectable=0;fillColor=none;top=0;left=0;bottom=0;right=0;align=left;spacingLeft=6;overflow=hidden;" vertex="1" parent="516">
                    <mxGeometry x="30" width="150" height="30" as="geometry">
                        <mxRectangle width="150" height="30" as="alternateBounds"/>
                    </mxGeometry>
                </mxCell>
                <mxCell id="145" value="" style="shape=tableRow;horizontal=0;startSize=0;swimlaneHead=0;swimlaneBody=0;fillColor=none;collapsible=0;dropTarget=0;points=[[0,0.5],[1,0.5]];portConstraint=eastwest;top=0;left=0;right=0;bottom=0;" parent="138" vertex="1">
                    <mxGeometry y="120" width="180" height="30" as="geometry"/>
                </mxCell>
                <mxCell id="146" value="" style="shape=partialRectangle;connectable=0;fillColor=none;top=0;left=0;bottom=0;right=0;editable=1;overflow=hidden;" parent="145" vertex="1">
                    <mxGeometry width="30" height="30" as="geometry">
                        <mxRectangle width="30" height="30" as="alternateBounds"/>
                    </mxGeometry>
                </mxCell>
                <mxCell id="147" value="created" style="shape=partialRectangle;connectable=0;fillColor=none;top=0;left=0;bottom=0;right=0;align=left;spacingLeft=6;overflow=hidden;" parent="145" vertex="1">
                    <mxGeometry x="30" width="150" height="30" as="geometry">
                        <mxRectangle width="150" height="30" as="alternateBounds"/>
                    </mxGeometry>
                </mxCell>
                <mxCell id="148" value="" style="shape=tableRow;horizontal=0;startSize=0;swimlaneHead=0;swimlaneBody=0;fillColor=none;collapsible=0;dropTarget=0;points=[[0,0.5],[1,0.5]];portConstraint=eastwest;top=0;left=0;right=0;bottom=0;" parent="138" vertex="1">
                    <mxGeometry y="150" width="180" height="30" as="geometry"/>
                </mxCell>
                <mxCell id="149" value="" style="shape=partialRectangle;connectable=0;fillColor=none;top=0;left=0;bottom=0;right=0;editable=1;overflow=hidden;" parent="148" vertex="1">
                    <mxGeometry width="30" height="30" as="geometry">
                        <mxRectangle width="30" height="30" as="alternateBounds"/>
                    </mxGeometry>
                </mxCell>
                <mxCell id="150" value="updated" style="shape=partialRectangle;connectable=0;fillColor=none;top=0;left=0;bottom=0;right=0;align=left;spacingLeft=6;overflow=hidden;" parent="148" vertex="1">
                    <mxGeometry x="30" width="150" height="30" as="geometry">
                        <mxRectangle width="150" height="30" as="alternateBounds"/>
                    </mxGeometry>
                </mxCell>
                <mxCell id="151" value="lending_histories" style="shape=table;startSize=30;container=1;collapsible=1;childLayout=tableLayout;fixedRows=1;rowLines=0;fontStyle=1;align=center;resizeLast=1;" parent="1" vertex="1">
                    <mxGeometry x="524" y="1012" width="180" height="180" as="geometry">
                        <mxRectangle x="76" y="303" width="136" height="30" as="alternateBounds"/>
                    </mxGeometry>
                </mxCell>
                <mxCell id="152" value="" style="shape=tableRow;horizontal=0;startSize=0;swimlaneHead=0;swimlaneBody=0;fillColor=none;collapsible=0;dropTarget=0;points=[[0,0.5],[1,0.5]];portConstraint=eastwest;top=0;left=0;right=0;bottom=1;" parent="151" vertex="1">
                    <mxGeometry y="30" width="180" height="30" as="geometry"/>
                </mxCell>
                <mxCell id="153" value="PK" style="shape=partialRectangle;connectable=0;fillColor=none;top=0;left=0;bottom=0;right=0;fontStyle=1;overflow=hidden;" parent="152" vertex="1">
                    <mxGeometry width="30" height="30" as="geometry">
                        <mxRectangle width="30" height="30" as="alternateBounds"/>
                    </mxGeometry>
                </mxCell>
                <mxCell id="154" value="history_id" style="shape=partialRectangle;connectable=0;fillColor=none;top=0;left=0;bottom=0;right=0;align=left;spacingLeft=6;fontStyle=5;overflow=hidden;" parent="152" vertex="1">
                    <mxGeometry x="30" width="150" height="30" as="geometry">
                        <mxRectangle width="150" height="30" as="alternateBounds"/>
                    </mxGeometry>
                </mxCell>
                <mxCell id="164" value="" style="shape=tableRow;horizontal=0;startSize=0;swimlaneHead=0;swimlaneBody=0;fillColor=none;collapsible=0;dropTarget=0;points=[[0,0.5],[1,0.5]];portConstraint=eastwest;top=0;left=0;right=0;bottom=0;" parent="151" vertex="1">
                    <mxGeometry y="60" width="180" height="30" as="geometry"/>
                </mxCell>
                <mxCell id="165" value="FK" style="shape=partialRectangle;connectable=0;fillColor=none;top=0;left=0;bottom=0;right=0;editable=1;overflow=hidden;" parent="164" vertex="1">
                    <mxGeometry width="30" height="30" as="geometry">
                        <mxRectangle width="30" height="30" as="alternateBounds"/>
                    </mxGeometry>
                </mxCell>
                <mxCell id="166" value="book_id" style="shape=partialRectangle;connectable=0;fillColor=none;top=0;left=0;bottom=0;right=0;align=left;spacingLeft=6;overflow=hidden;" parent="164" vertex="1">
                    <mxGeometry x="30" width="150" height="30" as="geometry">
                        <mxRectangle width="150" height="30" as="alternateBounds"/>
                    </mxGeometry>
                </mxCell>
                <mxCell id="242" value="" style="shape=tableRow;horizontal=0;startSize=0;swimlaneHead=0;swimlaneBody=0;fillColor=none;collapsible=0;dropTarget=0;points=[[0,0.5],[1,0.5]];portConstraint=eastwest;top=0;left=0;right=0;bottom=0;" parent="151" vertex="1">
                    <mxGeometry y="90" width="180" height="30" as="geometry"/>
                </mxCell>
                <mxCell id="243" value="FK" style="shape=partialRectangle;connectable=0;fillColor=none;top=0;left=0;bottom=0;right=0;editable=1;overflow=hidden;" parent="242" vertex="1">
                    <mxGeometry width="30" height="30" as="geometry">
                        <mxRectangle width="30" height="30" as="alternateBounds"/>
                    </mxGeometry>
                </mxCell>
                <mxCell id="244" value="user_id" style="shape=partialRectangle;connectable=0;fillColor=none;top=0;left=0;bottom=0;right=0;align=left;spacingLeft=6;overflow=hidden;" parent="242" vertex="1">
                    <mxGeometry x="30" width="150" height="30" as="geometry">
                        <mxRectangle width="150" height="30" as="alternateBounds"/>
                    </mxGeometry>
                </mxCell>
                <mxCell id="158" value="" style="shape=tableRow;horizontal=0;startSize=0;swimlaneHead=0;swimlaneBody=0;fillColor=none;collapsible=0;dropTarget=0;points=[[0,0.5],[1,0.5]];portConstraint=eastwest;top=0;left=0;right=0;bottom=0;" parent="151" vertex="1">
                    <mxGeometry y="120" width="180" height="30" as="geometry"/>
                </mxCell>
                <mxCell id="159" value="" style="shape=partialRectangle;connectable=0;fillColor=none;top=0;left=0;bottom=0;right=0;editable=1;overflow=hidden;" parent="158" vertex="1">
                    <mxGeometry width="30" height="30" as="geometry">
                        <mxRectangle width="30" height="30" as="alternateBounds"/>
                    </mxGeometry>
                </mxCell>
                <mxCell id="160" value="created" style="shape=partialRectangle;connectable=0;fillColor=none;top=0;left=0;bottom=0;right=0;align=left;spacingLeft=6;overflow=hidden;" parent="158" vertex="1">
                    <mxGeometry x="30" width="150" height="30" as="geometry">
                        <mxRectangle width="150" height="30" as="alternateBounds"/>
                    </mxGeometry>
                </mxCell>
                <mxCell id="161" value="" style="shape=tableRow;horizontal=0;startSize=0;swimlaneHead=0;swimlaneBody=0;fillColor=none;collapsible=0;dropTarget=0;points=[[0,0.5],[1,0.5]];portConstraint=eastwest;top=0;left=0;right=0;bottom=0;" parent="151" vertex="1">
                    <mxGeometry y="150" width="180" height="30" as="geometry"/>
                </mxCell>
                <mxCell id="162" value="" style="shape=partialRectangle;connectable=0;fillColor=none;top=0;left=0;bottom=0;right=0;editable=1;overflow=hidden;" parent="161" vertex="1">
                    <mxGeometry width="30" height="30" as="geometry">
                        <mxRectangle width="30" height="30" as="alternateBounds"/>
                    </mxGeometry>
                </mxCell>
                <mxCell id="163" value="updated" style="shape=partialRectangle;connectable=0;fillColor=none;top=0;left=0;bottom=0;right=0;align=left;spacingLeft=6;overflow=hidden;" parent="161" vertex="1">
                    <mxGeometry x="30" width="150" height="30" as="geometry">
                        <mxRectangle width="150" height="30" as="alternateBounds"/>
                    </mxGeometry>
                </mxCell>
                <mxCell id="190" style="edgeStyle=orthogonalEdgeStyle;html=1;exitX=0;exitY=0.5;exitDx=0;exitDy=0;entryX=1;entryY=0.5;entryDx=0;entryDy=0;endArrow=none;endFill=0;" parent="1" source="103" target="73" edge="1">
                    <mxGeometry relative="1" as="geometry">
                        <Array as="points">
                            <mxPoint x="253" y="454"/>
                            <mxPoint x="253" y="304"/>
                            <mxPoint x="309" y="304"/>
                            <mxPoint x="309" y="153"/>
                        </Array>
                    </mxGeometry>
                </mxCell>
                <mxCell id="204" style="edgeStyle=orthogonalEdgeStyle;html=1;exitX=0;exitY=0.5;exitDx=0;exitDy=0;entryX=1;entryY=0.5;entryDx=0;entryDy=0;endArrow=none;endFill=0;" parent="1" source="142" target="73" edge="1">
                    <mxGeometry relative="1" as="geometry">
                        <Array as="points">
                            <mxPoint x="468" y="454"/>
                            <mxPoint x="468" y="153"/>
                        </Array>
                    </mxGeometry>
                </mxCell>
                <mxCell id="206" style="edgeStyle=orthogonalEdgeStyle;html=1;exitX=1;exitY=0.5;exitDx=0;exitDy=0;entryX=0;entryY=0.5;entryDx=0;entryDy=0;endArrow=none;endFill=0;" parent="1" source="126" target="164" edge="1">
                    <mxGeometry relative="1" as="geometry">
                        <Array as="points">
                            <mxPoint x="935" y="424"/>
                            <mxPoint x="935" y="1011"/>
                            <mxPoint x="740" y="1011"/>
                            <mxPoint x="740" y="987"/>
                            <mxPoint x="513" y="987"/>
                            <mxPoint x="513" y="1087"/>
                        </Array>
                    </mxGeometry>
                </mxCell>
                <mxCell id="214" style="edgeStyle=orthogonalEdgeStyle;html=1;exitX=1;exitY=0.5;exitDx=0;exitDy=0;entryX=0;entryY=0.5;entryDx=0;entryDy=0;endArrow=none;endFill=0;" parent="1" source="139" target="211" edge="1">
                    <mxGeometry relative="1" as="geometry"/>
                </mxCell>
                <mxCell id="170" value="statuses" style="shape=table;startSize=30;container=1;collapsible=1;childLayout=tableLayout;fixedRows=1;rowLines=0;fontStyle=1;align=center;resizeLast=1;" parent="1" vertex="1">
                    <mxGeometry x="731" y="592" width="180" height="150" as="geometry">
                        <mxRectangle x="76" y="303" width="136" height="30" as="alternateBounds"/>
                    </mxGeometry>
                </mxCell>
                <mxCell id="171" value="" style="shape=tableRow;horizontal=0;startSize=0;swimlaneHead=0;swimlaneBody=0;fillColor=none;collapsible=0;dropTarget=0;points=[[0,0.5],[1,0.5]];portConstraint=eastwest;top=0;left=0;right=0;bottom=1;" parent="170" vertex="1">
                    <mxGeometry y="30" width="180" height="30" as="geometry"/>
                </mxCell>
                <mxCell id="172" value="PK" style="shape=partialRectangle;connectable=0;fillColor=none;top=0;left=0;bottom=0;right=0;fontStyle=1;overflow=hidden;" parent="171" vertex="1">
                    <mxGeometry width="30" height="30" as="geometry">
                        <mxRectangle width="30" height="30" as="alternateBounds"/>
                    </mxGeometry>
                </mxCell>
                <mxCell id="173" value="status_id" style="shape=partialRectangle;connectable=0;fillColor=none;top=0;left=0;bottom=0;right=0;align=left;spacingLeft=6;fontStyle=5;overflow=hidden;" parent="171" vertex="1">
                    <mxGeometry x="30" width="150" height="30" as="geometry">
                        <mxRectangle width="150" height="30" as="alternateBounds"/>
                    </mxGeometry>
                </mxCell>
                <mxCell id="174" value="" style="shape=tableRow;horizontal=0;startSize=0;swimlaneHead=0;swimlaneBody=0;fillColor=none;collapsible=0;dropTarget=0;points=[[0,0.5],[1,0.5]];portConstraint=eastwest;top=0;left=0;right=0;bottom=0;" parent="170" vertex="1">
                    <mxGeometry y="60" width="180" height="30" as="geometry"/>
                </mxCell>
                <mxCell id="175" value="" style="shape=partialRectangle;connectable=0;fillColor=none;top=0;left=0;bottom=0;right=0;editable=1;overflow=hidden;" parent="174" vertex="1">
                    <mxGeometry width="30" height="30" as="geometry">
                        <mxRectangle width="30" height="30" as="alternateBounds"/>
                    </mxGeometry>
                </mxCell>
                <mxCell id="176" value="status_name" style="shape=partialRectangle;connectable=0;fillColor=none;top=0;left=0;bottom=0;right=0;align=left;spacingLeft=6;overflow=hidden;" parent="174" vertex="1">
                    <mxGeometry x="30" width="150" height="30" as="geometry">
                        <mxRectangle width="150" height="30" as="alternateBounds"/>
                    </mxGeometry>
                </mxCell>
                <mxCell id="180" value="" style="shape=tableRow;horizontal=0;startSize=0;swimlaneHead=0;swimlaneBody=0;fillColor=none;collapsible=0;dropTarget=0;points=[[0,0.5],[1,0.5]];portConstraint=eastwest;top=0;left=0;right=0;bottom=0;" parent="170" vertex="1">
                    <mxGeometry y="90" width="180" height="30" as="geometry"/>
                </mxCell>
                <mxCell id="181" value="" style="shape=partialRectangle;connectable=0;fillColor=none;top=0;left=0;bottom=0;right=0;editable=1;overflow=hidden;" parent="180" vertex="1">
                    <mxGeometry width="30" height="30" as="geometry">
                        <mxRectangle width="30" height="30" as="alternateBounds"/>
                    </mxGeometry>
                </mxCell>
                <mxCell id="182" value="created" style="shape=partialRectangle;connectable=0;fillColor=none;top=0;left=0;bottom=0;right=0;align=left;spacingLeft=6;overflow=hidden;" parent="180" vertex="1">
                    <mxGeometry x="30" width="150" height="30" as="geometry">
                        <mxRectangle width="150" height="30" as="alternateBounds"/>
                    </mxGeometry>
                </mxCell>
                <mxCell id="183" value="" style="shape=tableRow;horizontal=0;startSize=0;swimlaneHead=0;swimlaneBody=0;fillColor=none;collapsible=0;dropTarget=0;points=[[0,0.5],[1,0.5]];portConstraint=eastwest;top=0;left=0;right=0;bottom=0;" parent="170" vertex="1">
                    <mxGeometry y="120" width="180" height="30" as="geometry"/>
                </mxCell>
                <mxCell id="184" value="" style="shape=partialRectangle;connectable=0;fillColor=none;top=0;left=0;bottom=0;right=0;editable=1;overflow=hidden;" parent="183" vertex="1">
                    <mxGeometry width="30" height="30" as="geometry">
                        <mxRectangle width="30" height="30" as="alternateBounds"/>
                    </mxGeometry>
                </mxCell>
                <mxCell id="185" value="updated" style="shape=partialRectangle;connectable=0;fillColor=none;top=0;left=0;bottom=0;right=0;align=left;spacingLeft=6;overflow=hidden;" parent="183" vertex="1">
                    <mxGeometry x="30" width="150" height="30" as="geometry">
                        <mxRectangle width="150" height="30" as="alternateBounds"/>
                    </mxGeometry>
                </mxCell>
                <mxCell id="221" value="return_histories" style="shape=table;startSize=30;container=1;collapsible=1;childLayout=tableLayout;fixedRows=1;rowLines=0;fontStyle=1;align=center;resizeLast=1;" parent="1" vertex="1">
                    <mxGeometry x="524" y="791" width="180" height="180" as="geometry">
                        <mxRectangle x="76" y="303" width="136" height="30" as="alternateBounds"/>
                    </mxGeometry>
                </mxCell>
                <mxCell id="222" value="" style="shape=tableRow;horizontal=0;startSize=0;swimlaneHead=0;swimlaneBody=0;fillColor=none;collapsible=0;dropTarget=0;points=[[0,0.5],[1,0.5]];portConstraint=eastwest;top=0;left=0;right=0;bottom=1;" parent="221" vertex="1">
                    <mxGeometry y="30" width="180" height="30" as="geometry"/>
                </mxCell>
                <mxCell id="223" value="PK" style="shape=partialRectangle;connectable=0;fillColor=none;top=0;left=0;bottom=0;right=0;fontStyle=1;overflow=hidden;" parent="222" vertex="1">
                    <mxGeometry width="30" height="30" as="geometry">
                        <mxRectangle width="30" height="30" as="alternateBounds"/>
                    </mxGeometry>
                </mxCell>
                <mxCell id="224" value="history_id" style="shape=partialRectangle;connectable=0;fillColor=none;top=0;left=0;bottom=0;right=0;align=left;spacingLeft=6;fontStyle=5;overflow=hidden;" parent="222" vertex="1">
                    <mxGeometry x="30" width="150" height="30" as="geometry">
                        <mxRectangle width="150" height="30" as="alternateBounds"/>
                    </mxGeometry>
                </mxCell>
                <mxCell id="225" value="" style="shape=tableRow;horizontal=0;startSize=0;swimlaneHead=0;swimlaneBody=0;fillColor=none;collapsible=0;dropTarget=0;points=[[0,0.5],[1,0.5]];portConstraint=eastwest;top=0;left=0;right=0;bottom=0;" parent="221" vertex="1">
                    <mxGeometry y="60" width="180" height="30" as="geometry"/>
                </mxCell>
                <mxCell id="226" value="FK" style="shape=partialRectangle;connectable=0;fillColor=none;top=0;left=0;bottom=0;right=0;editable=1;overflow=hidden;" parent="225" vertex="1">
                    <mxGeometry width="30" height="30" as="geometry">
                        <mxRectangle width="30" height="30" as="alternateBounds"/>
                    </mxGeometry>
                </mxCell>
                <mxCell id="227" value="book_id" style="shape=partialRectangle;connectable=0;fillColor=none;top=0;left=0;bottom=0;right=0;align=left;spacingLeft=6;overflow=hidden;" parent="225" vertex="1">
                    <mxGeometry x="30" width="150" height="30" as="geometry">
                        <mxRectangle width="150" height="30" as="alternateBounds"/>
                    </mxGeometry>
                </mxCell>
                <mxCell id="231" value="" style="shape=tableRow;horizontal=0;startSize=0;swimlaneHead=0;swimlaneBody=0;fillColor=none;collapsible=0;dropTarget=0;points=[[0,0.5],[1,0.5]];portConstraint=eastwest;top=0;left=0;right=0;bottom=0;" parent="221" vertex="1">
                    <mxGeometry y="90" width="180" height="30" as="geometry"/>
                </mxCell>
                <mxCell id="232" value="FK" style="shape=partialRectangle;connectable=0;fillColor=none;top=0;left=0;bottom=0;right=0;editable=1;overflow=hidden;" parent="231" vertex="1">
                    <mxGeometry width="30" height="30" as="geometry">
                        <mxRectangle width="30" height="30" as="alternateBounds"/>
                    </mxGeometry>
                </mxCell>
                <mxCell id="233" value="user_id" style="shape=partialRectangle;connectable=0;fillColor=none;top=0;left=0;bottom=0;right=0;align=left;spacingLeft=6;overflow=hidden;" parent="231" vertex="1">
                    <mxGeometry x="30" width="150" height="30" as="geometry">
                        <mxRectangle width="150" height="30" as="alternateBounds"/>
                    </mxGeometry>
                </mxCell>
                <mxCell id="234" value="" style="shape=tableRow;horizontal=0;startSize=0;swimlaneHead=0;swimlaneBody=0;fillColor=none;collapsible=0;dropTarget=0;points=[[0,0.5],[1,0.5]];portConstraint=eastwest;top=0;left=0;right=0;bottom=0;" parent="221" vertex="1">
                    <mxGeometry y="120" width="180" height="30" as="geometry"/>
                </mxCell>
                <mxCell id="235" value="" style="shape=partialRectangle;connectable=0;fillColor=none;top=0;left=0;bottom=0;right=0;editable=1;overflow=hidden;" parent="234" vertex="1">
                    <mxGeometry width="30" height="30" as="geometry">
                        <mxRectangle width="30" height="30" as="alternateBounds"/>
                    </mxGeometry>
                </mxCell>
                <mxCell id="236" value="updated" style="shape=partialRectangle;connectable=0;fillColor=none;top=0;left=0;bottom=0;right=0;align=left;spacingLeft=6;overflow=hidden;" parent="234" vertex="1">
                    <mxGeometry x="30" width="150" height="30" as="geometry">
                        <mxRectangle width="150" height="30" as="alternateBounds"/>
                    </mxGeometry>
                </mxCell>
                <mxCell id="239" value="" style="shape=tableRow;horizontal=0;startSize=0;swimlaneHead=0;swimlaneBody=0;fillColor=none;collapsible=0;dropTarget=0;points=[[0,0.5],[1,0.5]];portConstraint=eastwest;top=0;left=0;right=0;bottom=0;" parent="221" vertex="1">
                    <mxGeometry y="150" width="180" height="30" as="geometry"/>
                </mxCell>
                <mxCell id="240" value="" style="shape=partialRectangle;connectable=0;fillColor=none;top=0;left=0;bottom=0;right=0;editable=1;overflow=hidden;" parent="239" vertex="1">
                    <mxGeometry width="30" height="30" as="geometry">
                        <mxRectangle width="30" height="30" as="alternateBounds"/>
                    </mxGeometry>
                </mxCell>
                <mxCell id="241" value="created" style="shape=partialRectangle;connectable=0;fillColor=none;top=0;left=0;bottom=0;right=0;align=left;spacingLeft=6;overflow=hidden;" parent="239" vertex="1">
                    <mxGeometry x="30" width="150" height="30" as="geometry">
                        <mxRectangle width="150" height="30" as="alternateBounds"/>
                    </mxGeometry>
                </mxCell>
                <mxCell id="237" style="edgeStyle=orthogonalEdgeStyle;html=1;exitX=1;exitY=0.5;exitDx=0;exitDy=0;entryX=0;entryY=0.5;entryDx=0;entryDy=0;endArrow=none;endFill=0;" parent="1" source="126" target="225" edge="1">
                    <mxGeometry relative="1" as="geometry">
                        <Array as="points">
                            <mxPoint x="956" y="424"/>
                            <mxPoint x="956" y="771"/>
                            <mxPoint x="514" y="771"/>
                            <mxPoint x="514" y="839"/>
                        </Array>
                    </mxGeometry>
                </mxCell>
                <mxCell id="238" style="edgeStyle=orthogonalEdgeStyle;html=1;exitX=1;exitY=0.5;exitDx=0;exitDy=0;endArrow=none;endFill=0;entryX=0;entryY=0.5;entryDx=0;entryDy=0;" parent="1" source="218" target="171" edge="1">
                    <mxGeometry relative="1" as="geometry">
                        <mxPoint x="981" y="904" as="targetPoint"/>
                        <Array as="points">
                            <mxPoint x="921" y="484"/>
                            <mxPoint x="921" y="577"/>
                            <mxPoint x="721" y="577"/>
                            <mxPoint x="721" y="637"/>
                        </Array>
                    </mxGeometry>
                </mxCell>
                <mxCell id="245" style="edgeStyle=orthogonalEdgeStyle;html=1;exitX=0;exitY=0.5;exitDx=0;exitDy=0;entryX=0;entryY=0.5;entryDx=0;entryDy=0;endArrow=none;endFill=0;" parent="1" source="100" target="231" edge="1">
                    <mxGeometry relative="1" as="geometry"/>
                </mxCell>
                <mxCell id="246" style="edgeStyle=orthogonalEdgeStyle;html=1;exitX=0;exitY=0.5;exitDx=0;exitDy=0;endArrow=none;endFill=0;entryX=0;entryY=0.5;entryDx=0;entryDy=0;" parent="1" source="242" target="100" edge="1">
                    <mxGeometry relative="1" as="geometry">
                        <mxPoint x="400.189511506454" y="1032.4492399796197" as="targetPoint"/>
                    </mxGeometry>
                </mxCell>
                <mxCell id="247" value="Assets" style="childLayout=tableLayout;recursiveResize=0;strokeColor=#98bf21;fillColor=#A7C942;shadow=1;" vertex="1" parent="1">
                    <mxGeometry x="486" y="70" width="1622" height="160" as="geometry"/>
                </mxCell>
                <mxCell id="248" style="shape=tableRow;horizontal=0;startSize=0;swimlaneHead=0;swimlaneBody=0;top=0;left=0;bottom=0;right=0;dropTarget=0;collapsible=0;recursiveResize=0;expand=0;fontStyle=0;strokeColor=inherit;fillColor=#ffffff;" vertex="1" parent="247">
                    <mxGeometry width="1622" height="33" as="geometry"/>
                </mxCell>
                <mxCell id="249" value="列名" style="connectable=0;recursiveResize=0;strokeColor=inherit;fillColor=#A7C942;align=center;fontStyle=1;fontColor=#FFFFFF;html=1;" vertex="1" parent="248">
                    <mxGeometry width="196" height="33" as="geometry">
                        <mxRectangle width="196" height="33" as="alternateBounds"/>
                    </mxGeometry>
                </mxCell>
                <mxCell id="250" value="型" style="connectable=0;recursiveResize=0;strokeColor=inherit;fillColor=#A7C942;align=center;fontStyle=1;fontColor=#FFFFFF;html=1;" vertex="1" parent="248">
                    <mxGeometry x="196" width="161" height="33" as="geometry">
                        <mxRectangle width="161" height="33" as="alternateBounds"/>
                    </mxGeometry>
                </mxCell>
                <mxCell id="251" value="NOT NULL" style="connectable=0;recursiveResize=0;strokeColor=inherit;fillColor=#A7C942;align=center;fontStyle=1;fontColor=#FFFFFF;html=1;" vertex="1" parent="248">
                    <mxGeometry x="357" width="87" height="33" as="geometry">
                        <mxRectangle width="87" height="33" as="alternateBounds"/>
                    </mxGeometry>
                </mxCell>
                <mxCell id="288" value="デフォルト値" style="connectable=0;recursiveResize=0;strokeColor=inherit;fillColor=#A7C942;align=center;fontStyle=1;fontColor=#FFFFFF;html=1;" vertex="1" parent="248">
                    <mxGeometry x="444" width="234" height="33" as="geometry">
                        <mxRectangle width="234" height="33" as="alternateBounds"/>
                    </mxGeometry>
                </mxCell>
                <mxCell id="293" value="AI" style="connectable=0;recursiveResize=0;strokeColor=inherit;fillColor=#A7C942;align=center;fontStyle=1;fontColor=#FFFFFF;html=1;" vertex="1" parent="248">
                    <mxGeometry x="678" width="52" height="33" as="geometry">
                        <mxRectangle width="52" height="33" as="alternateBounds"/>
                    </mxGeometry>
                </mxCell>
                <mxCell id="298" value="コメント" style="connectable=0;recursiveResize=0;strokeColor=inherit;fillColor=#A7C942;align=center;fontStyle=1;fontColor=#FFFFFF;html=1;" vertex="1" parent="248">
                    <mxGeometry x="730" width="437" height="33" as="geometry">
                        <mxRectangle width="437" height="33" as="alternateBounds"/>
                    </mxGeometry>
                </mxCell>
                <mxCell id="303" value="属性" style="connectable=0;recursiveResize=0;strokeColor=inherit;fillColor=#A7C942;align=center;fontStyle=1;fontColor=#FFFFFF;html=1;" vertex="1" parent="248">
                    <mxGeometry x="1167" width="455" height="33" as="geometry">
                        <mxRectangle width="455" height="33" as="alternateBounds"/>
                    </mxGeometry>
                </mxCell>
                <mxCell id="252" value="" style="shape=tableRow;horizontal=0;startSize=0;swimlaneHead=0;swimlaneBody=0;top=0;left=0;bottom=0;right=0;dropTarget=0;collapsible=0;recursiveResize=0;expand=0;fontStyle=0;strokeColor=inherit;fillColor=#ffffff;" vertex="1" parent="247">
                    <mxGeometry y="33" width="1622" height="32" as="geometry"/>
                </mxCell>
                <mxCell id="253" value="company_id" style="connectable=0;recursiveResize=0;strokeColor=inherit;fillColor=inherit;align=left;whiteSpace=wrap;html=1;spacingLeft=10;" vertex="1" parent="252">
                    <mxGeometry width="196" height="32" as="geometry">
                        <mxRectangle width="196" height="32" as="alternateBounds"/>
                    </mxGeometry>
                </mxCell>
                <mxCell id="254" value="int" style="connectable=0;recursiveResize=0;strokeColor=inherit;fillColor=inherit;align=left;whiteSpace=wrap;html=1;spacingLeft=10;" vertex="1" parent="252">
                    <mxGeometry x="196" width="161" height="32" as="geometry">
                        <mxRectangle width="161" height="32" as="alternateBounds"/>
                    </mxGeometry>
                </mxCell>
                <mxCell id="255" value="☑️" style="connectable=0;recursiveResize=0;strokeColor=inherit;fillColor=inherit;align=left;whiteSpace=wrap;html=1;spacingLeft=10;" vertex="1" parent="252">
                    <mxGeometry x="357" width="87" height="32" as="geometry">
                        <mxRectangle width="87" height="32" as="alternateBounds"/>
                    </mxGeometry>
                </mxCell>
                <mxCell id="289" style="connectable=0;recursiveResize=0;strokeColor=inherit;fillColor=inherit;align=left;whiteSpace=wrap;html=1;spacingLeft=10;" vertex="1" parent="252">
                    <mxGeometry x="444" width="234" height="32" as="geometry">
                        <mxRectangle width="234" height="32" as="alternateBounds"/>
                    </mxGeometry>
                </mxCell>
                <mxCell id="294" value="☑️" style="connectable=0;recursiveResize=0;strokeColor=inherit;fillColor=inherit;align=left;whiteSpace=wrap;html=1;spacingLeft=10;" vertex="1" parent="252">
                    <mxGeometry x="678" width="52" height="32" as="geometry">
                        <mxRectangle width="52" height="32" as="alternateBounds"/>
                    </mxGeometry>
                </mxCell>
                <mxCell id="299" value="企業ID" style="connectable=0;recursiveResize=0;strokeColor=inherit;fillColor=inherit;align=left;whiteSpace=wrap;html=1;spacingLeft=10;" vertex="1" parent="252">
                    <mxGeometry x="730" width="437" height="32" as="geometry">
                        <mxRectangle width="437" height="32" as="alternateBounds"/>
                    </mxGeometry>
                </mxCell>
                <mxCell id="304" value="PRIMARY_KEY AUTO_INCREMENT&amp;nbsp;UNSIGNED" style="connectable=0;recursiveResize=0;strokeColor=inherit;fillColor=inherit;align=left;whiteSpace=wrap;html=1;spacingLeft=10;" vertex="1" parent="252">
                    <mxGeometry x="1167" width="455" height="32" as="geometry">
                        <mxRectangle width="455" height="32" as="alternateBounds"/>
                    </mxGeometry>
                </mxCell>
                <mxCell id="256" value="" style="shape=tableRow;horizontal=0;startSize=0;swimlaneHead=0;swimlaneBody=0;top=0;left=0;bottom=0;right=0;dropTarget=0;collapsible=0;recursiveResize=0;expand=0;fontStyle=1;strokeColor=inherit;fillColor=#EAF2D3;" vertex="1" parent="247">
                    <mxGeometry y="65" width="1622" height="31" as="geometry"/>
                </mxCell>
                <mxCell id="257" value="name" style="connectable=0;recursiveResize=0;strokeColor=inherit;fillColor=inherit;whiteSpace=wrap;html=1;align=left;spacingLeft=10;" vertex="1" parent="256">
                    <mxGeometry width="196" height="31" as="geometry">
                        <mxRectangle width="196" height="31" as="alternateBounds"/>
                    </mxGeometry>
                </mxCell>
                <mxCell id="258" value="varchar(255)" style="connectable=0;recursiveResize=0;strokeColor=inherit;fillColor=inherit;whiteSpace=wrap;html=1;align=left;spacingLeft=10;" vertex="1" parent="256">
                    <mxGeometry x="196" width="161" height="31" as="geometry">
                        <mxRectangle width="161" height="31" as="alternateBounds"/>
                    </mxGeometry>
                </mxCell>
                <mxCell id="259" value="☑️" style="connectable=0;recursiveResize=0;strokeColor=inherit;fillColor=inherit;whiteSpace=wrap;html=1;align=left;spacingLeft=10;" vertex="1" parent="256">
                    <mxGeometry x="357" width="87" height="31" as="geometry">
                        <mxRectangle width="87" height="31" as="alternateBounds"/>
                    </mxGeometry>
                </mxCell>
                <mxCell id="290" style="connectable=0;recursiveResize=0;strokeColor=inherit;fillColor=inherit;whiteSpace=wrap;html=1;align=left;spacingLeft=10;" vertex="1" parent="256">
                    <mxGeometry x="444" width="234" height="31" as="geometry">
                        <mxRectangle width="234" height="31" as="alternateBounds"/>
                    </mxGeometry>
                </mxCell>
                <mxCell id="295" style="connectable=0;recursiveResize=0;strokeColor=inherit;fillColor=inherit;whiteSpace=wrap;html=1;align=left;spacingLeft=10;" vertex="1" parent="256">
                    <mxGeometry x="678" width="52" height="31" as="geometry">
                        <mxRectangle width="52" height="31" as="alternateBounds"/>
                    </mxGeometry>
                </mxCell>
                <mxCell id="300" value="企業名" style="connectable=0;recursiveResize=0;strokeColor=inherit;fillColor=inherit;whiteSpace=wrap;html=1;align=left;spacingLeft=10;" vertex="1" parent="256">
                    <mxGeometry x="730" width="437" height="31" as="geometry">
                        <mxRectangle width="437" height="31" as="alternateBounds"/>
                    </mxGeometry>
                </mxCell>
                <mxCell id="305" style="connectable=0;recursiveResize=0;strokeColor=inherit;fillColor=inherit;whiteSpace=wrap;html=1;align=left;spacingLeft=10;" vertex="1" parent="256">
                    <mxGeometry x="1167" width="455" height="31" as="geometry">
                        <mxRectangle width="455" height="31" as="alternateBounds"/>
                    </mxGeometry>
                </mxCell>
                <mxCell id="260" value="" style="shape=tableRow;horizontal=0;startSize=0;swimlaneHead=0;swimlaneBody=0;top=0;left=0;bottom=0;right=0;dropTarget=0;collapsible=0;recursiveResize=0;expand=0;fontStyle=0;strokeColor=inherit;fillColor=#ffffff;" vertex="1" parent="247">
                    <mxGeometry y="96" width="1622" height="33" as="geometry"/>
                </mxCell>
                <mxCell id="261" value="created" style="connectable=0;recursiveResize=0;strokeColor=inherit;fillColor=inherit;fontStyle=0;align=left;whiteSpace=wrap;html=1;spacingLeft=10;" vertex="1" parent="260">
                    <mxGeometry width="196" height="33" as="geometry">
                        <mxRectangle width="196" height="33" as="alternateBounds"/>
                    </mxGeometry>
                </mxCell>
                <mxCell id="262" value="timestamp" style="connectable=0;recursiveResize=0;strokeColor=inherit;fillColor=inherit;fontStyle=0;align=left;whiteSpace=wrap;html=1;spacingLeft=10;" vertex="1" parent="260">
                    <mxGeometry x="196" width="161" height="33" as="geometry">
                        <mxRectangle width="161" height="33" as="alternateBounds"/>
                    </mxGeometry>
                </mxCell>
                <mxCell id="263" value="☑️" style="connectable=0;recursiveResize=0;strokeColor=inherit;fillColor=inherit;fontStyle=0;align=left;whiteSpace=wrap;html=1;spacingLeft=10;" vertex="1" parent="260">
                    <mxGeometry x="357" width="87" height="33" as="geometry">
                        <mxRectangle width="87" height="33" as="alternateBounds"/>
                    </mxGeometry>
                </mxCell>
                <mxCell id="291" value="CURRENT_TIMESTAMP" style="connectable=0;recursiveResize=0;strokeColor=inherit;fillColor=inherit;fontStyle=0;align=left;whiteSpace=wrap;html=1;spacingLeft=10;" vertex="1" parent="260">
                    <mxGeometry x="444" width="234" height="33" as="geometry">
                        <mxRectangle width="234" height="33" as="alternateBounds"/>
                    </mxGeometry>
                </mxCell>
                <mxCell id="296" style="connectable=0;recursiveResize=0;strokeColor=inherit;fillColor=inherit;fontStyle=0;align=left;whiteSpace=wrap;html=1;spacingLeft=10;" vertex="1" parent="260">
                    <mxGeometry x="678" width="52" height="33" as="geometry">
                        <mxRectangle width="52" height="33" as="alternateBounds"/>
                    </mxGeometry>
                </mxCell>
                <mxCell id="301" value="作成日" style="connectable=0;recursiveResize=0;strokeColor=inherit;fillColor=inherit;fontStyle=0;align=left;whiteSpace=wrap;html=1;spacingLeft=10;" vertex="1" parent="260">
                    <mxGeometry x="730" width="437" height="33" as="geometry">
                        <mxRectangle width="437" height="33" as="alternateBounds"/>
                    </mxGeometry>
                </mxCell>
                <mxCell id="306" value="" style="connectable=0;recursiveResize=0;strokeColor=inherit;fillColor=inherit;fontStyle=0;align=left;whiteSpace=wrap;html=1;spacingLeft=10;" vertex="1" parent="260">
                    <mxGeometry x="1167" width="455" height="33" as="geometry">
                        <mxRectangle width="455" height="33" as="alternateBounds"/>
                    </mxGeometry>
                </mxCell>
                <mxCell id="264" value="" style="shape=tableRow;horizontal=0;startSize=0;swimlaneHead=0;swimlaneBody=0;top=0;left=0;bottom=0;right=0;dropTarget=0;collapsible=0;recursiveResize=0;expand=0;fontStyle=1;strokeColor=inherit;fillColor=#EAF2D3;" vertex="1" parent="247">
                    <mxGeometry y="129" width="1622" height="31" as="geometry"/>
                </mxCell>
                <mxCell id="265" value="created" style="connectable=0;recursiveResize=0;strokeColor=inherit;fillColor=inherit;whiteSpace=wrap;html=1;align=left;spacingLeft=10;" vertex="1" parent="264">
                    <mxGeometry width="196" height="31" as="geometry">
                        <mxRectangle width="196" height="31" as="alternateBounds"/>
                    </mxGeometry>
                </mxCell>
                <mxCell id="266" value="timestamp" style="connectable=0;recursiveResize=0;strokeColor=inherit;fillColor=inherit;whiteSpace=wrap;html=1;align=left;spacingLeft=10;" vertex="1" parent="264">
                    <mxGeometry x="196" width="161" height="31" as="geometry">
                        <mxRectangle width="161" height="31" as="alternateBounds"/>
                    </mxGeometry>
                </mxCell>
                <mxCell id="267" value="☑️" style="connectable=0;recursiveResize=0;strokeColor=inherit;fillColor=inherit;whiteSpace=wrap;html=1;align=left;spacingLeft=10;" vertex="1" parent="264">
                    <mxGeometry x="357" width="87" height="31" as="geometry">
                        <mxRectangle width="87" height="31" as="alternateBounds"/>
                    </mxGeometry>
                </mxCell>
                <mxCell id="292" value="CURRENT_TIMESTAMP" style="connectable=0;recursiveResize=0;strokeColor=inherit;fillColor=inherit;whiteSpace=wrap;html=1;align=left;spacingLeft=10;" vertex="1" parent="264">
                    <mxGeometry x="444" width="234" height="31" as="geometry">
                        <mxRectangle width="234" height="31" as="alternateBounds"/>
                    </mxGeometry>
                </mxCell>
                <mxCell id="297" style="connectable=0;recursiveResize=0;strokeColor=inherit;fillColor=inherit;whiteSpace=wrap;html=1;align=left;spacingLeft=10;" vertex="1" parent="264">
                    <mxGeometry x="678" width="52" height="31" as="geometry">
                        <mxRectangle width="52" height="31" as="alternateBounds"/>
                    </mxGeometry>
                </mxCell>
                <mxCell id="302" value="更新日" style="connectable=0;recursiveResize=0;strokeColor=inherit;fillColor=inherit;whiteSpace=wrap;html=1;align=left;spacingLeft=10;" vertex="1" parent="264">
                    <mxGeometry x="730" width="437" height="31" as="geometry">
                        <mxRectangle width="437" height="31" as="alternateBounds"/>
                    </mxGeometry>
                </mxCell>
                <mxCell id="307" value="on update CURRENT_TIMESTAMP" style="connectable=0;recursiveResize=0;strokeColor=inherit;fillColor=inherit;whiteSpace=wrap;html=1;align=left;spacingLeft=10;" vertex="1" parent="264">
                    <mxGeometry x="1167" width="455" height="31" as="geometry">
                        <mxRectangle width="455" height="31" as="alternateBounds"/>
                    </mxGeometry>
                </mxCell>
                <mxCell id="308" value="companies" style="text;strokeColor=none;align=left;fillColor=none;html=1;verticalAlign=middle;whiteSpace=wrap;rounded=0;fontSize=20;autosize=1;fixedWidth=1;resizeWidth=1;resizeHeight=1;" vertex="1" parent="1">
                    <mxGeometry x="486" y="27" width="137" height="36" as="geometry"/>
                </mxCell>
                <mxCell id="462" value="" style="group" vertex="1" connectable="0" parent="1">
                    <mxGeometry x="983" y="284" width="1622" height="236" as="geometry"/>
                </mxCell>
                <mxCell id="396" value="Assets" style="childLayout=tableLayout;recursiveResize=0;strokeColor=#98bf21;fillColor=#A7C942;shadow=1;" vertex="1" parent="462">
                    <mxGeometry y="43" width="1508" height="193" as="geometry"/>
                </mxCell>
                <mxCell id="397" style="shape=tableRow;horizontal=0;startSize=0;swimlaneHead=0;swimlaneBody=0;top=0;left=0;bottom=0;right=0;dropTarget=0;collapsible=0;recursiveResize=0;expand=0;fontStyle=0;strokeColor=inherit;fillColor=#ffffff;" vertex="1" parent="396">
                    <mxGeometry width="1508" height="33" as="geometry"/>
                </mxCell>
                <mxCell id="398" value="列名" style="connectable=0;recursiveResize=0;strokeColor=inherit;fillColor=#A7C942;align=center;fontStyle=1;fontColor=#FFFFFF;html=1;" vertex="1" parent="397">
                    <mxGeometry width="182" height="33" as="geometry">
                        <mxRectangle width="182" height="33" as="alternateBounds"/>
                    </mxGeometry>
                </mxCell>
                <mxCell id="399" value="型" style="connectable=0;recursiveResize=0;strokeColor=inherit;fillColor=#A7C942;align=center;fontStyle=1;fontColor=#FFFFFF;html=1;" vertex="1" parent="397">
                    <mxGeometry x="182" width="149" height="33" as="geometry">
                        <mxRectangle width="149" height="33" as="alternateBounds"/>
                    </mxGeometry>
                </mxCell>
                <mxCell id="400" value="NOT NULL" style="connectable=0;recursiveResize=0;strokeColor=inherit;fillColor=#A7C942;align=center;fontStyle=1;fontColor=#FFFFFF;html=1;" vertex="1" parent="397">
                    <mxGeometry x="331" width="63" height="33" as="geometry">
                        <mxRectangle width="63" height="33" as="alternateBounds"/>
                    </mxGeometry>
                </mxCell>
                <mxCell id="401" value="デフォルト値" style="connectable=0;recursiveResize=0;strokeColor=inherit;fillColor=#A7C942;align=center;fontStyle=1;fontColor=#FFFFFF;html=1;" vertex="1" parent="397">
                    <mxGeometry x="394" width="199" height="33" as="geometry">
                        <mxRectangle width="199" height="33" as="alternateBounds"/>
                    </mxGeometry>
                </mxCell>
                <mxCell id="402" value="AI" style="connectable=0;recursiveResize=0;strokeColor=inherit;fillColor=#A7C942;align=center;fontStyle=1;fontColor=#FFFFFF;html=1;" vertex="1" parent="397">
                    <mxGeometry x="593" width="40" height="33" as="geometry">
                        <mxRectangle width="40" height="33" as="alternateBounds"/>
                    </mxGeometry>
                </mxCell>
                <mxCell id="403" value="コメント" style="connectable=0;recursiveResize=0;strokeColor=inherit;fillColor=#A7C942;align=center;fontStyle=1;fontColor=#FFFFFF;html=1;" vertex="1" parent="397">
                    <mxGeometry x="633" width="347" height="33" as="geometry">
                        <mxRectangle width="347" height="33" as="alternateBounds"/>
                    </mxGeometry>
                </mxCell>
                <mxCell id="404" value="属性" style="connectable=0;recursiveResize=0;strokeColor=inherit;fillColor=#A7C942;align=center;fontStyle=1;fontColor=#FFFFFF;html=1;" vertex="1" parent="397">
                    <mxGeometry x="980" width="528" height="33" as="geometry">
                        <mxRectangle width="528" height="33" as="alternateBounds"/>
                    </mxGeometry>
                </mxCell>
                <mxCell id="405" value="" style="shape=tableRow;horizontal=0;startSize=0;swimlaneHead=0;swimlaneBody=0;top=0;left=0;bottom=0;right=0;dropTarget=0;collapsible=0;recursiveResize=0;expand=0;fontStyle=0;strokeColor=inherit;fillColor=#ffffff;" vertex="1" parent="396">
                    <mxGeometry y="33" width="1508" height="32" as="geometry"/>
                </mxCell>
                <mxCell id="406" value="user_id" style="connectable=0;recursiveResize=0;strokeColor=inherit;fillColor=inherit;align=left;whiteSpace=wrap;html=1;spacingLeft=10;" vertex="1" parent="405">
                    <mxGeometry width="182" height="32" as="geometry">
                        <mxRectangle width="182" height="32" as="alternateBounds"/>
                    </mxGeometry>
                </mxCell>
                <mxCell id="407" value="int" style="connectable=0;recursiveResize=0;strokeColor=inherit;fillColor=inherit;align=left;whiteSpace=wrap;html=1;spacingLeft=10;" vertex="1" parent="405">
                    <mxGeometry x="182" width="149" height="32" as="geometry">
                        <mxRectangle width="149" height="32" as="alternateBounds"/>
                    </mxGeometry>
                </mxCell>
                <mxCell id="408" value="☑️" style="connectable=0;recursiveResize=0;strokeColor=inherit;fillColor=inherit;align=left;whiteSpace=wrap;html=1;spacingLeft=10;" vertex="1" parent="405">
                    <mxGeometry x="331" width="63" height="32" as="geometry">
                        <mxRectangle width="63" height="32" as="alternateBounds"/>
                    </mxGeometry>
                </mxCell>
                <mxCell id="409" style="connectable=0;recursiveResize=0;strokeColor=inherit;fillColor=inherit;align=left;whiteSpace=wrap;html=1;spacingLeft=10;" vertex="1" parent="405">
                    <mxGeometry x="394" width="199" height="32" as="geometry">
                        <mxRectangle width="199" height="32" as="alternateBounds"/>
                    </mxGeometry>
                </mxCell>
                <mxCell id="410" value="☑️" style="connectable=0;recursiveResize=0;strokeColor=inherit;fillColor=inherit;align=left;whiteSpace=wrap;html=1;spacingLeft=10;" vertex="1" parent="405">
                    <mxGeometry x="593" width="40" height="32" as="geometry">
                        <mxRectangle width="40" height="32" as="alternateBounds"/>
                    </mxGeometry>
                </mxCell>
                <mxCell id="411" value="ユーザーID" style="connectable=0;recursiveResize=0;strokeColor=inherit;fillColor=inherit;align=left;whiteSpace=wrap;html=1;spacingLeft=10;" vertex="1" parent="405">
                    <mxGeometry x="633" width="347" height="32" as="geometry">
                        <mxRectangle width="347" height="32" as="alternateBounds"/>
                    </mxGeometry>
                </mxCell>
                <mxCell id="412" value="PRIMARY_KEY AUTO_INCREMENT&amp;nbsp;UNSIGNED" style="connectable=0;recursiveResize=0;strokeColor=inherit;fillColor=inherit;align=left;whiteSpace=wrap;html=1;spacingLeft=10;" vertex="1" parent="405">
                    <mxGeometry x="980" width="528" height="32" as="geometry">
                        <mxRectangle width="528" height="32" as="alternateBounds"/>
                    </mxGeometry>
                </mxCell>
                <mxCell id="413" value="" style="shape=tableRow;horizontal=0;startSize=0;swimlaneHead=0;swimlaneBody=0;top=0;left=0;bottom=0;right=0;dropTarget=0;collapsible=0;recursiveResize=0;expand=0;fontStyle=1;strokeColor=inherit;fillColor=#EAF2D3;" vertex="1" parent="396">
                    <mxGeometry y="65" width="1508" height="31" as="geometry"/>
                </mxCell>
                <mxCell id="414" value="company_id" style="connectable=0;recursiveResize=0;strokeColor=inherit;fillColor=inherit;whiteSpace=wrap;html=1;align=left;spacingLeft=10;" vertex="1" parent="413">
                    <mxGeometry width="182" height="31" as="geometry">
                        <mxRectangle width="182" height="31" as="alternateBounds"/>
                    </mxGeometry>
                </mxCell>
                <mxCell id="415" value="int" style="connectable=0;recursiveResize=0;strokeColor=inherit;fillColor=inherit;whiteSpace=wrap;html=1;align=left;spacingLeft=10;" vertex="1" parent="413">
                    <mxGeometry x="182" width="149" height="31" as="geometry">
                        <mxRectangle width="149" height="31" as="alternateBounds"/>
                    </mxGeometry>
                </mxCell>
                <mxCell id="416" value="☑️" style="connectable=0;recursiveResize=0;strokeColor=inherit;fillColor=inherit;whiteSpace=wrap;html=1;align=left;spacingLeft=10;" vertex="1" parent="413">
                    <mxGeometry x="331" width="63" height="31" as="geometry">
                        <mxRectangle width="63" height="31" as="alternateBounds"/>
                    </mxGeometry>
                </mxCell>
                <mxCell id="417" style="connectable=0;recursiveResize=0;strokeColor=inherit;fillColor=inherit;whiteSpace=wrap;html=1;align=left;spacingLeft=10;" vertex="1" parent="413">
                    <mxGeometry x="394" width="199" height="31" as="geometry">
                        <mxRectangle width="199" height="31" as="alternateBounds"/>
                    </mxGeometry>
                </mxCell>
                <mxCell id="418" style="connectable=0;recursiveResize=0;strokeColor=inherit;fillColor=inherit;whiteSpace=wrap;html=1;align=left;spacingLeft=10;" vertex="1" parent="413">
                    <mxGeometry x="593" width="40" height="31" as="geometry">
                        <mxRectangle width="40" height="31" as="alternateBounds"/>
                    </mxGeometry>
                </mxCell>
                <mxCell id="419" value="企業ID" style="connectable=0;recursiveResize=0;strokeColor=inherit;fillColor=inherit;whiteSpace=wrap;html=1;align=left;spacingLeft=10;" vertex="1" parent="413">
                    <mxGeometry x="633" width="347" height="31" as="geometry">
                        <mxRectangle width="347" height="31" as="alternateBounds"/>
                    </mxGeometry>
                </mxCell>
                <mxCell id="420" value="FOREIGN KEY" style="connectable=0;recursiveResize=0;strokeColor=inherit;fillColor=inherit;whiteSpace=wrap;html=1;align=left;spacingLeft=10;" vertex="1" parent="413">
                    <mxGeometry x="980" width="528" height="31" as="geometry">
                        <mxRectangle width="528" height="31" as="alternateBounds"/>
                    </mxGeometry>
                </mxCell>
                <mxCell id="421" value="" style="shape=tableRow;horizontal=0;startSize=0;swimlaneHead=0;swimlaneBody=0;top=0;left=0;bottom=0;right=0;dropTarget=0;collapsible=0;recursiveResize=0;expand=0;fontStyle=0;strokeColor=inherit;fillColor=#ffffff;" vertex="1" parent="396">
                    <mxGeometry y="96" width="1508" height="33" as="geometry"/>
                </mxCell>
                <mxCell id="422" value="is_admin" style="connectable=0;recursiveResize=0;strokeColor=inherit;fillColor=inherit;fontStyle=0;align=left;whiteSpace=wrap;html=1;spacingLeft=10;" vertex="1" parent="421">
                    <mxGeometry width="182" height="33" as="geometry">
                        <mxRectangle width="182" height="33" as="alternateBounds"/>
                    </mxGeometry>
                </mxCell>
                <mxCell id="423" value="tinyint" style="connectable=0;recursiveResize=0;strokeColor=inherit;fillColor=inherit;fontStyle=0;align=left;whiteSpace=wrap;html=1;spacingLeft=10;" vertex="1" parent="421">
                    <mxGeometry x="182" width="149" height="33" as="geometry">
                        <mxRectangle width="149" height="33" as="alternateBounds"/>
                    </mxGeometry>
                </mxCell>
                <mxCell id="424" value="☑️" style="connectable=0;recursiveResize=0;strokeColor=inherit;fillColor=inherit;fontStyle=0;align=left;whiteSpace=wrap;html=1;spacingLeft=10;" vertex="1" parent="421">
                    <mxGeometry x="331" width="63" height="33" as="geometry">
                        <mxRectangle width="63" height="33" as="alternateBounds"/>
                    </mxGeometry>
                </mxCell>
                <mxCell id="425" value="0" style="connectable=0;recursiveResize=0;strokeColor=inherit;fillColor=inherit;fontStyle=0;align=left;whiteSpace=wrap;html=1;spacingLeft=10;" vertex="1" parent="421">
                    <mxGeometry x="394" width="199" height="33" as="geometry">
                        <mxRectangle width="199" height="33" as="alternateBounds"/>
                    </mxGeometry>
                </mxCell>
                <mxCell id="426" style="connectable=0;recursiveResize=0;strokeColor=inherit;fillColor=inherit;fontStyle=0;align=left;whiteSpace=wrap;html=1;spacingLeft=10;" vertex="1" parent="421">
                    <mxGeometry x="593" width="40" height="33" as="geometry">
                        <mxRectangle width="40" height="33" as="alternateBounds"/>
                    </mxGeometry>
                </mxCell>
                <mxCell id="427" value="管理者かどうか（0: 通常ユーザー, 1:管理者）" style="connectable=0;recursiveResize=0;strokeColor=inherit;fillColor=inherit;fontStyle=0;align=left;whiteSpace=wrap;html=1;spacingLeft=10;" vertex="1" parent="421">
                    <mxGeometry x="633" width="347" height="33" as="geometry">
                        <mxRectangle width="347" height="33" as="alternateBounds"/>
                    </mxGeometry>
                </mxCell>
                <mxCell id="428" value="UNSIGNED" style="connectable=0;recursiveResize=0;strokeColor=inherit;fillColor=inherit;fontStyle=0;align=left;whiteSpace=wrap;html=1;spacingLeft=10;" vertex="1" parent="421">
                    <mxGeometry x="980" width="528" height="33" as="geometry">
                        <mxRectangle width="528" height="33" as="alternateBounds"/>
                    </mxGeometry>
                </mxCell>
                <mxCell id="429" value="" style="shape=tableRow;horizontal=0;startSize=0;swimlaneHead=0;swimlaneBody=0;top=0;left=0;bottom=0;right=0;dropTarget=0;collapsible=0;recursiveResize=0;expand=0;fontStyle=1;strokeColor=inherit;fillColor=#EAF2D3;" vertex="1" parent="396">
                    <mxGeometry y="129" width="1508" height="31" as="geometry"/>
                </mxCell>
                <mxCell id="430" value="created" style="connectable=0;recursiveResize=0;strokeColor=inherit;fillColor=inherit;whiteSpace=wrap;html=1;align=left;spacingLeft=10;" vertex="1" parent="429">
                    <mxGeometry width="182" height="31" as="geometry">
                        <mxRectangle width="182" height="31" as="alternateBounds"/>
                    </mxGeometry>
                </mxCell>
                <mxCell id="431" value="timestamp" style="connectable=0;recursiveResize=0;strokeColor=inherit;fillColor=inherit;whiteSpace=wrap;html=1;align=left;spacingLeft=10;" vertex="1" parent="429">
                    <mxGeometry x="182" width="149" height="31" as="geometry">
                        <mxRectangle width="149" height="31" as="alternateBounds"/>
                    </mxGeometry>
                </mxCell>
                <mxCell id="432" value="☑️" style="connectable=0;recursiveResize=0;strokeColor=inherit;fillColor=inherit;whiteSpace=wrap;html=1;align=left;spacingLeft=10;" vertex="1" parent="429">
                    <mxGeometry x="331" width="63" height="31" as="geometry">
                        <mxRectangle width="63" height="31" as="alternateBounds"/>
                    </mxGeometry>
                </mxCell>
                <mxCell id="433" value="CURRENT_TIMESTAMP" style="connectable=0;recursiveResize=0;strokeColor=inherit;fillColor=inherit;whiteSpace=wrap;html=1;align=left;spacingLeft=10;" vertex="1" parent="429">
                    <mxGeometry x="394" width="199" height="31" as="geometry">
                        <mxRectangle width="199" height="31" as="alternateBounds"/>
                    </mxGeometry>
                </mxCell>
                <mxCell id="434" style="connectable=0;recursiveResize=0;strokeColor=inherit;fillColor=inherit;whiteSpace=wrap;html=1;align=left;spacingLeft=10;" vertex="1" parent="429">
                    <mxGeometry x="593" width="40" height="31" as="geometry">
                        <mxRectangle width="40" height="31" as="alternateBounds"/>
                    </mxGeometry>
                </mxCell>
                <mxCell id="435" value="作成日" style="connectable=0;recursiveResize=0;strokeColor=inherit;fillColor=inherit;whiteSpace=wrap;html=1;align=left;spacingLeft=10;" vertex="1" parent="429">
                    <mxGeometry x="633" width="347" height="31" as="geometry">
                        <mxRectangle width="347" height="31" as="alternateBounds"/>
                    </mxGeometry>
                </mxCell>
                <mxCell id="436" value="" style="connectable=0;recursiveResize=0;strokeColor=inherit;fillColor=inherit;whiteSpace=wrap;html=1;align=left;spacingLeft=10;" vertex="1" parent="429">
                    <mxGeometry x="980" width="528" height="31" as="geometry">
                        <mxRectangle width="528" height="31" as="alternateBounds"/>
                    </mxGeometry>
                </mxCell>
                <mxCell id="437" value="" style="shape=tableRow;horizontal=0;startSize=0;swimlaneHead=0;swimlaneBody=0;top=0;left=0;bottom=0;right=0;dropTarget=0;collapsible=0;recursiveResize=0;expand=0;fontStyle=0;strokeColor=inherit;fillColor=#ffffff;" vertex="1" parent="396">
                    <mxGeometry y="160" width="1508" height="33" as="geometry"/>
                </mxCell>
                <mxCell id="438" value="updated" style="connectable=0;recursiveResize=0;strokeColor=inherit;fillColor=inherit;fontStyle=0;align=left;whiteSpace=wrap;html=1;spacingLeft=10;" vertex="1" parent="437">
                    <mxGeometry width="182" height="33" as="geometry">
                        <mxRectangle width="182" height="33" as="alternateBounds"/>
                    </mxGeometry>
                </mxCell>
                <mxCell id="439" value="timestamp" style="connectable=0;recursiveResize=0;strokeColor=inherit;fillColor=inherit;fontStyle=0;align=left;whiteSpace=wrap;html=1;spacingLeft=10;" vertex="1" parent="437">
                    <mxGeometry x="182" width="149" height="33" as="geometry">
                        <mxRectangle width="149" height="33" as="alternateBounds"/>
                    </mxGeometry>
                </mxCell>
                <mxCell id="440" value="☑️" style="connectable=0;recursiveResize=0;strokeColor=inherit;fillColor=inherit;fontStyle=0;align=left;whiteSpace=wrap;html=1;spacingLeft=10;" vertex="1" parent="437">
                    <mxGeometry x="331" width="63" height="33" as="geometry">
                        <mxRectangle width="63" height="33" as="alternateBounds"/>
                    </mxGeometry>
                </mxCell>
                <mxCell id="441" value="CURRENT_TIMESTAMP" style="connectable=0;recursiveResize=0;strokeColor=inherit;fillColor=inherit;fontStyle=0;align=left;whiteSpace=wrap;html=1;spacingLeft=10;" vertex="1" parent="437">
                    <mxGeometry x="394" width="199" height="33" as="geometry">
                        <mxRectangle width="199" height="33" as="alternateBounds"/>
                    </mxGeometry>
                </mxCell>
                <mxCell id="442" style="connectable=0;recursiveResize=0;strokeColor=inherit;fillColor=inherit;fontStyle=0;align=left;whiteSpace=wrap;html=1;spacingLeft=10;" vertex="1" parent="437">
                    <mxGeometry x="593" width="40" height="33" as="geometry">
                        <mxRectangle width="40" height="33" as="alternateBounds"/>
                    </mxGeometry>
                </mxCell>
                <mxCell id="443" value="更新日" style="connectable=0;recursiveResize=0;strokeColor=inherit;fillColor=inherit;fontStyle=0;align=left;whiteSpace=wrap;html=1;spacingLeft=10;" vertex="1" parent="437">
                    <mxGeometry x="633" width="347" height="33" as="geometry">
                        <mxRectangle width="347" height="33" as="alternateBounds"/>
                    </mxGeometry>
                </mxCell>
                <mxCell id="444" value="on update CURRENT_TIMESTAMP" style="connectable=0;recursiveResize=0;strokeColor=inherit;fillColor=inherit;fontStyle=0;align=left;whiteSpace=wrap;html=1;spacingLeft=10;" vertex="1" parent="437">
                    <mxGeometry x="980" width="528" height="33" as="geometry">
                        <mxRectangle width="528" height="33" as="alternateBounds"/>
                    </mxGeometry>
                </mxCell>
                <mxCell id="445" value="users" style="text;strokeColor=none;align=left;fillColor=none;html=1;verticalAlign=middle;whiteSpace=wrap;rounded=0;fontSize=20;autosize=1;fixedWidth=1;resizeWidth=1;resizeHeight=1;" vertex="1" parent="462">
                    <mxGeometry width="137" height="36" as="geometry"/>
                </mxCell>
                <mxCell id="465" value="" style="group" vertex="1" connectable="0" parent="1">
                    <mxGeometry x="985" y="559.26" width="1622" height="236" as="geometry"/>
                </mxCell>
                <mxCell id="466" value="Assets" style="childLayout=tableLayout;recursiveResize=0;strokeColor=#98bf21;fillColor=#A7C942;shadow=1;" vertex="1" parent="465">
                    <mxGeometry y="43" width="1622" height="193" as="geometry"/>
                </mxCell>
                <mxCell id="467" style="shape=tableRow;horizontal=0;startSize=0;swimlaneHead=0;swimlaneBody=0;top=0;left=0;bottom=0;right=0;dropTarget=0;collapsible=0;recursiveResize=0;expand=0;fontStyle=0;strokeColor=inherit;fillColor=#ffffff;" vertex="1" parent="466">
                    <mxGeometry width="1622" height="33" as="geometry"/>
                </mxCell>
                <mxCell id="468" value="列名" style="connectable=0;recursiveResize=0;strokeColor=inherit;fillColor=#A7C942;align=center;fontStyle=1;fontColor=#FFFFFF;html=1;" vertex="1" parent="467">
                    <mxGeometry width="196" height="33" as="geometry">
                        <mxRectangle width="196" height="33" as="alternateBounds"/>
                    </mxGeometry>
                </mxCell>
                <mxCell id="469" value="型" style="connectable=0;recursiveResize=0;strokeColor=inherit;fillColor=#A7C942;align=center;fontStyle=1;fontColor=#FFFFFF;html=1;" vertex="1" parent="467">
                    <mxGeometry x="196" width="160" height="33" as="geometry">
                        <mxRectangle width="160" height="33" as="alternateBounds"/>
                    </mxGeometry>
                </mxCell>
                <mxCell id="470" value="NOT NULL" style="connectable=0;recursiveResize=0;strokeColor=inherit;fillColor=#A7C942;align=center;fontStyle=1;fontColor=#FFFFFF;html=1;" vertex="1" parent="467">
                    <mxGeometry x="356" width="68" height="33" as="geometry">
                        <mxRectangle width="68" height="33" as="alternateBounds"/>
                    </mxGeometry>
                </mxCell>
                <mxCell id="471" value="デフォルト値" style="connectable=0;recursiveResize=0;strokeColor=inherit;fillColor=#A7C942;align=center;fontStyle=1;fontColor=#FFFFFF;html=1;" vertex="1" parent="467">
                    <mxGeometry x="424" width="254" height="33" as="geometry">
                        <mxRectangle width="254" height="33" as="alternateBounds"/>
                    </mxGeometry>
                </mxCell>
                <mxCell id="472" value="AI" style="connectable=0;recursiveResize=0;strokeColor=inherit;fillColor=#A7C942;align=center;fontStyle=1;fontColor=#FFFFFF;html=1;" vertex="1" parent="467">
                    <mxGeometry x="678" width="52" height="33" as="geometry">
                        <mxRectangle width="52" height="33" as="alternateBounds"/>
                    </mxGeometry>
                </mxCell>
                <mxCell id="473" value="コメント" style="connectable=0;recursiveResize=0;strokeColor=inherit;fillColor=#A7C942;align=center;fontStyle=1;fontColor=#FFFFFF;html=1;" vertex="1" parent="467">
                    <mxGeometry x="730" width="437" height="33" as="geometry">
                        <mxRectangle width="437" height="33" as="alternateBounds"/>
                    </mxGeometry>
                </mxCell>
                <mxCell id="474" value="属性" style="connectable=0;recursiveResize=0;strokeColor=inherit;fillColor=#A7C942;align=center;fontStyle=1;fontColor=#FFFFFF;html=1;" vertex="1" parent="467">
                    <mxGeometry x="1167" width="455" height="33" as="geometry">
                        <mxRectangle width="455" height="33" as="alternateBounds"/>
                    </mxGeometry>
                </mxCell>
                <mxCell id="475" value="" style="shape=tableRow;horizontal=0;startSize=0;swimlaneHead=0;swimlaneBody=0;top=0;left=0;bottom=0;right=0;dropTarget=0;collapsible=0;recursiveResize=0;expand=0;fontStyle=0;strokeColor=inherit;fillColor=#ffffff;" vertex="1" parent="466">
                    <mxGeometry y="33" width="1622" height="32" as="geometry"/>
                </mxCell>
                <mxCell id="476" value="bookshelfe_id" style="connectable=0;recursiveResize=0;strokeColor=inherit;fillColor=inherit;align=left;whiteSpace=wrap;html=1;spacingLeft=10;" vertex="1" parent="475">
                    <mxGeometry width="196" height="32" as="geometry">
                        <mxRectangle width="196" height="32" as="alternateBounds"/>
                    </mxGeometry>
                </mxCell>
                <mxCell id="477" value="int" style="connectable=0;recursiveResize=0;strokeColor=inherit;fillColor=inherit;align=left;whiteSpace=wrap;html=1;spacingLeft=10;" vertex="1" parent="475">
                    <mxGeometry x="196" width="160" height="32" as="geometry">
                        <mxRectangle width="160" height="32" as="alternateBounds"/>
                    </mxGeometry>
                </mxCell>
                <mxCell id="478" value="☑️" style="connectable=0;recursiveResize=0;strokeColor=inherit;fillColor=inherit;align=left;whiteSpace=wrap;html=1;spacingLeft=10;" vertex="1" parent="475">
                    <mxGeometry x="356" width="68" height="32" as="geometry">
                        <mxRectangle width="68" height="32" as="alternateBounds"/>
                    </mxGeometry>
                </mxCell>
                <mxCell id="479" style="connectable=0;recursiveResize=0;strokeColor=inherit;fillColor=inherit;align=left;whiteSpace=wrap;html=1;spacingLeft=10;" vertex="1" parent="475">
                    <mxGeometry x="424" width="254" height="32" as="geometry">
                        <mxRectangle width="254" height="32" as="alternateBounds"/>
                    </mxGeometry>
                </mxCell>
                <mxCell id="480" value="☑️" style="connectable=0;recursiveResize=0;strokeColor=inherit;fillColor=inherit;align=left;whiteSpace=wrap;html=1;spacingLeft=10;" vertex="1" parent="475">
                    <mxGeometry x="678" width="52" height="32" as="geometry">
                        <mxRectangle width="52" height="32" as="alternateBounds"/>
                    </mxGeometry>
                </mxCell>
                <mxCell id="481" value="本棚ID" style="connectable=0;recursiveResize=0;strokeColor=inherit;fillColor=inherit;align=left;whiteSpace=wrap;html=1;spacingLeft=10;" vertex="1" parent="475">
                    <mxGeometry x="730" width="437" height="32" as="geometry">
                        <mxRectangle width="437" height="32" as="alternateBounds"/>
                    </mxGeometry>
                </mxCell>
                <mxCell id="482" value="PRIMARY_KEY AUTO_INCREMENT&amp;nbsp;UNSIGNED" style="connectable=0;recursiveResize=0;strokeColor=inherit;fillColor=inherit;align=left;whiteSpace=wrap;html=1;spacingLeft=10;" vertex="1" parent="475">
                    <mxGeometry x="1167" width="455" height="32" as="geometry">
                        <mxRectangle width="455" height="32" as="alternateBounds"/>
                    </mxGeometry>
                </mxCell>
                <mxCell id="483" value="" style="shape=tableRow;horizontal=0;startSize=0;swimlaneHead=0;swimlaneBody=0;top=0;left=0;bottom=0;right=0;dropTarget=0;collapsible=0;recursiveResize=0;expand=0;fontStyle=1;strokeColor=inherit;fillColor=#EAF2D3;" vertex="1" parent="466">
                    <mxGeometry y="65" width="1622" height="31" as="geometry"/>
                </mxCell>
                <mxCell id="484" value="company_id" style="connectable=0;recursiveResize=0;strokeColor=inherit;fillColor=inherit;whiteSpace=wrap;html=1;align=left;spacingLeft=10;" vertex="1" parent="483">
                    <mxGeometry width="196" height="31" as="geometry">
                        <mxRectangle width="196" height="31" as="alternateBounds"/>
                    </mxGeometry>
                </mxCell>
                <mxCell id="485" value="int" style="connectable=0;recursiveResize=0;strokeColor=inherit;fillColor=inherit;whiteSpace=wrap;html=1;align=left;spacingLeft=10;" vertex="1" parent="483">
                    <mxGeometry x="196" width="160" height="31" as="geometry">
                        <mxRectangle width="160" height="31" as="alternateBounds"/>
                    </mxGeometry>
                </mxCell>
                <mxCell id="486" value="☑️" style="connectable=0;recursiveResize=0;strokeColor=inherit;fillColor=inherit;whiteSpace=wrap;html=1;align=left;spacingLeft=10;" vertex="1" parent="483">
                    <mxGeometry x="356" width="68" height="31" as="geometry">
                        <mxRectangle width="68" height="31" as="alternateBounds"/>
                    </mxGeometry>
                </mxCell>
                <mxCell id="487" style="connectable=0;recursiveResize=0;strokeColor=inherit;fillColor=inherit;whiteSpace=wrap;html=1;align=left;spacingLeft=10;" vertex="1" parent="483">
                    <mxGeometry x="424" width="254" height="31" as="geometry">
                        <mxRectangle width="254" height="31" as="alternateBounds"/>
                    </mxGeometry>
                </mxCell>
                <mxCell id="488" style="connectable=0;recursiveResize=0;strokeColor=inherit;fillColor=inherit;whiteSpace=wrap;html=1;align=left;spacingLeft=10;" vertex="1" parent="483">
                    <mxGeometry x="678" width="52" height="31" as="geometry">
                        <mxRectangle width="52" height="31" as="alternateBounds"/>
                    </mxGeometry>
                </mxCell>
                <mxCell id="489" value="企業ID" style="connectable=0;recursiveResize=0;strokeColor=inherit;fillColor=inherit;whiteSpace=wrap;html=1;align=left;spacingLeft=10;" vertex="1" parent="483">
                    <mxGeometry x="730" width="437" height="31" as="geometry">
                        <mxRectangle width="437" height="31" as="alternateBounds"/>
                    </mxGeometry>
                </mxCell>
                <mxCell id="490" value="FOREIGN KEY" style="connectable=0;recursiveResize=0;strokeColor=inherit;fillColor=inherit;whiteSpace=wrap;html=1;align=left;spacingLeft=10;" vertex="1" parent="483">
                    <mxGeometry x="1167" width="455" height="31" as="geometry">
                        <mxRectangle width="455" height="31" as="alternateBounds"/>
                    </mxGeometry>
                </mxCell>
                <mxCell id="491" value="" style="shape=tableRow;horizontal=0;startSize=0;swimlaneHead=0;swimlaneBody=0;top=0;left=0;bottom=0;right=0;dropTarget=0;collapsible=0;recursiveResize=0;expand=0;fontStyle=0;strokeColor=inherit;fillColor=#ffffff;" vertex="1" parent="466">
                    <mxGeometry y="96" width="1622" height="33" as="geometry"/>
                </mxCell>
                <mxCell id="492" value="bookshelfe_name" style="connectable=0;recursiveResize=0;strokeColor=inherit;fillColor=inherit;fontStyle=0;align=left;whiteSpace=wrap;html=1;spacingLeft=10;" vertex="1" parent="491">
                    <mxGeometry width="196" height="33" as="geometry">
                        <mxRectangle width="196" height="33" as="alternateBounds"/>
                    </mxGeometry>
                </mxCell>
                <mxCell id="493" value="varchar(255)" style="connectable=0;recursiveResize=0;strokeColor=inherit;fillColor=inherit;fontStyle=0;align=left;whiteSpace=wrap;html=1;spacingLeft=10;" vertex="1" parent="491">
                    <mxGeometry x="196" width="160" height="33" as="geometry">
                        <mxRectangle width="160" height="33" as="alternateBounds"/>
                    </mxGeometry>
                </mxCell>
                <mxCell id="494" value="☑️" style="connectable=0;recursiveResize=0;strokeColor=inherit;fillColor=inherit;fontStyle=0;align=left;whiteSpace=wrap;html=1;spacingLeft=10;" vertex="1" parent="491">
                    <mxGeometry x="356" width="68" height="33" as="geometry">
                        <mxRectangle width="68" height="33" as="alternateBounds"/>
                    </mxGeometry>
                </mxCell>
                <mxCell id="495" value="" style="connectable=0;recursiveResize=0;strokeColor=inherit;fillColor=inherit;fontStyle=0;align=left;whiteSpace=wrap;html=1;spacingLeft=10;" vertex="1" parent="491">
                    <mxGeometry x="424" width="254" height="33" as="geometry">
                        <mxRectangle width="254" height="33" as="alternateBounds"/>
                    </mxGeometry>
                </mxCell>
                <mxCell id="496" style="connectable=0;recursiveResize=0;strokeColor=inherit;fillColor=inherit;fontStyle=0;align=left;whiteSpace=wrap;html=1;spacingLeft=10;" vertex="1" parent="491">
                    <mxGeometry x="678" width="52" height="33" as="geometry">
                        <mxRectangle width="52" height="33" as="alternateBounds"/>
                    </mxGeometry>
                </mxCell>
                <mxCell id="497" value="本棚名" style="connectable=0;recursiveResize=0;strokeColor=inherit;fillColor=inherit;fontStyle=0;align=left;whiteSpace=wrap;html=1;spacingLeft=10;" vertex="1" parent="491">
                    <mxGeometry x="730" width="437" height="33" as="geometry">
                        <mxRectangle width="437" height="33" as="alternateBounds"/>
                    </mxGeometry>
                </mxCell>
                <mxCell id="498" value="" style="connectable=0;recursiveResize=0;strokeColor=inherit;fillColor=inherit;fontStyle=0;align=left;whiteSpace=wrap;html=1;spacingLeft=10;" vertex="1" parent="491">
                    <mxGeometry x="1167" width="455" height="33" as="geometry">
                        <mxRectangle width="455" height="33" as="alternateBounds"/>
                    </mxGeometry>
                </mxCell>
                <mxCell id="499" value="" style="shape=tableRow;horizontal=0;startSize=0;swimlaneHead=0;swimlaneBody=0;top=0;left=0;bottom=0;right=0;dropTarget=0;collapsible=0;recursiveResize=0;expand=0;fontStyle=1;strokeColor=inherit;fillColor=#EAF2D3;" vertex="1" parent="466">
                    <mxGeometry y="129" width="1622" height="31" as="geometry"/>
                </mxCell>
                <mxCell id="500" value="created" style="connectable=0;recursiveResize=0;strokeColor=inherit;fillColor=inherit;whiteSpace=wrap;html=1;align=left;spacingLeft=10;" vertex="1" parent="499">
                    <mxGeometry width="196" height="31" as="geometry">
                        <mxRectangle width="196" height="31" as="alternateBounds"/>
                    </mxGeometry>
                </mxCell>
                <mxCell id="501" value="timestamp" style="connectable=0;recursiveResize=0;strokeColor=inherit;fillColor=inherit;whiteSpace=wrap;html=1;align=left;spacingLeft=10;" vertex="1" parent="499">
                    <mxGeometry x="196" width="160" height="31" as="geometry">
                        <mxRectangle width="160" height="31" as="alternateBounds"/>
                    </mxGeometry>
                </mxCell>
                <mxCell id="502" value="☑️" style="connectable=0;recursiveResize=0;strokeColor=inherit;fillColor=inherit;whiteSpace=wrap;html=1;align=left;spacingLeft=10;" vertex="1" parent="499">
                    <mxGeometry x="356" width="68" height="31" as="geometry">
                        <mxRectangle width="68" height="31" as="alternateBounds"/>
                    </mxGeometry>
                </mxCell>
                <mxCell id="503" value="CURRENT_TIMESTAMP" style="connectable=0;recursiveResize=0;strokeColor=inherit;fillColor=inherit;whiteSpace=wrap;html=1;align=left;spacingLeft=10;" vertex="1" parent="499">
                    <mxGeometry x="424" width="254" height="31" as="geometry">
                        <mxRectangle width="254" height="31" as="alternateBounds"/>
                    </mxGeometry>
                </mxCell>
                <mxCell id="504" style="connectable=0;recursiveResize=0;strokeColor=inherit;fillColor=inherit;whiteSpace=wrap;html=1;align=left;spacingLeft=10;" vertex="1" parent="499">
                    <mxGeometry x="678" width="52" height="31" as="geometry">
                        <mxRectangle width="52" height="31" as="alternateBounds"/>
                    </mxGeometry>
                </mxCell>
                <mxCell id="505" value="作成日" style="connectable=0;recursiveResize=0;strokeColor=inherit;fillColor=inherit;whiteSpace=wrap;html=1;align=left;spacingLeft=10;" vertex="1" parent="499">
                    <mxGeometry x="730" width="437" height="31" as="geometry">
                        <mxRectangle width="437" height="31" as="alternateBounds"/>
                    </mxGeometry>
                </mxCell>
                <mxCell id="506" value="" style="connectable=0;recursiveResize=0;strokeColor=inherit;fillColor=inherit;whiteSpace=wrap;html=1;align=left;spacingLeft=10;" vertex="1" parent="499">
                    <mxGeometry x="1167" width="455" height="31" as="geometry">
                        <mxRectangle width="455" height="31" as="alternateBounds"/>
                    </mxGeometry>
                </mxCell>
                <mxCell id="507" value="" style="shape=tableRow;horizontal=0;startSize=0;swimlaneHead=0;swimlaneBody=0;top=0;left=0;bottom=0;right=0;dropTarget=0;collapsible=0;recursiveResize=0;expand=0;fontStyle=0;strokeColor=inherit;fillColor=#ffffff;" vertex="1" parent="466">
                    <mxGeometry y="160" width="1622" height="33" as="geometry"/>
                </mxCell>
                <mxCell id="508" value="updated" style="connectable=0;recursiveResize=0;strokeColor=inherit;fillColor=inherit;fontStyle=0;align=left;whiteSpace=wrap;html=1;spacingLeft=10;" vertex="1" parent="507">
                    <mxGeometry width="196" height="33" as="geometry">
                        <mxRectangle width="196" height="33" as="alternateBounds"/>
                    </mxGeometry>
                </mxCell>
                <mxCell id="509" value="timestamp" style="connectable=0;recursiveResize=0;strokeColor=inherit;fillColor=inherit;fontStyle=0;align=left;whiteSpace=wrap;html=1;spacingLeft=10;" vertex="1" parent="507">
                    <mxGeometry x="196" width="160" height="33" as="geometry">
                        <mxRectangle width="160" height="33" as="alternateBounds"/>
                    </mxGeometry>
                </mxCell>
                <mxCell id="510" value="☑️" style="connectable=0;recursiveResize=0;strokeColor=inherit;fillColor=inherit;fontStyle=0;align=left;whiteSpace=wrap;html=1;spacingLeft=10;" vertex="1" parent="507">
                    <mxGeometry x="356" width="68" height="33" as="geometry">
                        <mxRectangle width="68" height="33" as="alternateBounds"/>
                    </mxGeometry>
                </mxCell>
                <mxCell id="511" value="CURRENT_TIMESTAMP" style="connectable=0;recursiveResize=0;strokeColor=inherit;fillColor=inherit;fontStyle=0;align=left;whiteSpace=wrap;html=1;spacingLeft=10;" vertex="1" parent="507">
                    <mxGeometry x="424" width="254" height="33" as="geometry">
                        <mxRectangle width="254" height="33" as="alternateBounds"/>
                    </mxGeometry>
                </mxCell>
                <mxCell id="512" style="connectable=0;recursiveResize=0;strokeColor=inherit;fillColor=inherit;fontStyle=0;align=left;whiteSpace=wrap;html=1;spacingLeft=10;" vertex="1" parent="507">
                    <mxGeometry x="678" width="52" height="33" as="geometry">
                        <mxRectangle width="52" height="33" as="alternateBounds"/>
                    </mxGeometry>
                </mxCell>
                <mxCell id="513" value="更新日" style="connectable=0;recursiveResize=0;strokeColor=inherit;fillColor=inherit;fontStyle=0;align=left;whiteSpace=wrap;html=1;spacingLeft=10;" vertex="1" parent="507">
                    <mxGeometry x="730" width="437" height="33" as="geometry">
                        <mxRectangle width="437" height="33" as="alternateBounds"/>
                    </mxGeometry>
                </mxCell>
                <mxCell id="514" value="on update CURRENT_TIMESTAMP" style="connectable=0;recursiveResize=0;strokeColor=inherit;fillColor=inherit;fontStyle=0;align=left;whiteSpace=wrap;html=1;spacingLeft=10;" vertex="1" parent="507">
                    <mxGeometry x="1167" width="455" height="33" as="geometry">
                        <mxRectangle width="455" height="33" as="alternateBounds"/>
                    </mxGeometry>
                </mxCell>
                <mxCell id="515" value="bookshelves" style="text;strokeColor=none;align=left;fillColor=none;html=1;verticalAlign=middle;whiteSpace=wrap;rounded=0;fontSize=20;autosize=1;fixedWidth=1;resizeWidth=1;resizeHeight=1;" vertex="1" parent="465">
                    <mxGeometry width="137" height="36" as="geometry"/>
                </mxCell>
            </root>
        </mxGraphModel>
    </diagram>
</mxfile>
